<svg width="135" height="143" viewBox="0 0 135 143" fill="none" xmlns="http://www.w3.org/2000/svg">
<path opacity="0.2" d="M67.2239 142.182C104.227 142.182 134.224 110.511 134.224 71.4424C134.224 32.3739 104.227 0.702637 67.2239 0.702637C30.2208 0.702637 0.223877 32.3739 0.223877 71.4424C0.223877 110.511 30.2208 142.182 67.2239 142.182Z" fill="#6DDFFF"/>
<mask id="mask0_34_1596" style="mask-type:alpha" maskUnits="userSpaceOnUse" x="0" y="0" width="135" height="143">
<path d="M67.2239 142.182C104.227 142.182 134.224 110.511 134.224 71.4424C134.224 32.3739 104.227 0.702637 67.2239 0.702637C30.2208 0.702637 0.223877 32.3739 0.223877 71.4424C0.223877 110.511 30.2208 142.182 67.2239 142.182Z" fill="white"/>
</mask>
<g mask="url(#mask0_34_1596)">
<path fill-rule="evenodd" clip-rule="evenodd" d="M85.0318 69.0448C81.309 73.8015 77.6835 78.4911 77.6835 78.4911C77.6835 78.4911 80.8709 83.8429 79.5712 91.4078C78.2726 98.971 74.157 104.092 74.157 104.092C74.157 104.092 73.8148 99.6437 72.8824 97.1611C71.9526 94.6779 68.2787 89.7645 68.2787 89.7645C68.2787 89.7645 66.6139 91.9033 64.6871 92.0067C63.9589 92.0447 62.7884 91.4452 61.4221 90.5361C61.2601 90.7935 61.094 91.0503 60.9226 91.3044C55.5594 99.3049 48.0877 103.456 44.2351 100.578C40.382 97.6973 41.6061 88.879 46.9709 80.8786C47.1975 80.5387 47.4287 80.2104 47.6637 79.8864C46.1593 78.5483 45.0665 77.3186 44.9946 76.4557C44.831 74.4901 45.6796 73.1465 45.6796 73.1465C45.6796 73.1465 42.088 71.5615 38.4953 71.457C34.9037 71.3525 31.147 72.4904 31.147 72.4904C31.147 72.4904 34.6089 66.284 40.2591 62.9742C45.9088 59.6639 53.0607 59.802 53.0607 59.802C53.0607 59.802 56.3257 53.8375 57.8941 51.0448C57.9518 50.9418 58.0117 50.8345 58.074 50.7229C59.7019 47.8056 62.9375 42.0073 70.9895 37.4252C79.3488 32.6674 89.3422 33.3912 89.3422 33.3912C89.3422 33.3912 92.0197 41.3894 92.0197 49.6654C92.0197 57.9409 88.7547 64.2854 85.0318 69.0448ZM74.2539 47.0065C69.8346 47.0065 66.2519 50.7881 66.2519 55.454C66.2519 60.1195 69.8346 63.9016 74.2539 63.9016C78.6717 63.9016 82.2544 60.1195 82.2544 55.454C82.2549 50.7881 78.6722 47.0065 74.2539 47.0065ZM48.0616 94.7559C45.3634 92.6528 46.0577 86.8308 49.6097 81.7534C49.6164 81.7435 49.6234 81.7343 49.6304 81.725C49.6382 81.7146 49.6461 81.7042 49.6535 81.6929C50.6166 82.4533 51.6188 83.21 52.5605 83.921C53.0225 84.2698 53.4699 84.6077 53.891 84.9295C54.573 85.4523 55.3092 86.0354 56.0673 86.6358C57.1817 87.5185 58.3434 88.4385 59.4495 89.2594C59.4379 89.2765 59.427 89.2936 59.4162 89.3105C59.4033 89.3307 59.3905 89.3508 59.3766 89.3705C55.823 94.449 50.7583 96.8584 48.0616 94.7559Z" fill="#6DDFFF"/>
<path fill-rule="evenodd" clip-rule="evenodd" d="M18.2628 123.137L29.1183 107.927C29.6867 107.13 30.7683 106.979 31.5341 107.588C32.2998 108.197 32.4598 109.337 31.8913 110.133L21.0358 125.343L18.2628 123.137Z" fill="#6DDFFF"/>
<path fill-rule="evenodd" clip-rule="evenodd" d="M24.0055 127.874L31.0605 117.989C31.6289 117.193 32.7105 117.041 33.4763 117.65C34.242 118.26 34.402 119.399 33.8335 120.196L26.7785 130.081L24.0055 127.874Z" fill="#6DDFFF"/>
</g>
</svg>
