<svg width="98" height="102" viewBox="0 0 98 102" fill="none" xmlns="http://www.w3.org/2000/svg">
<path opacity="0.2" fill-rule="evenodd" clip-rule="evenodd" d="M49.1328 101.382C75.9186 101.382 97.6328 78.692 97.6328 50.7028C97.6328 22.7135 75.9186 0.0236816 49.1328 0.0236816C22.347 0.0236816 0.632812 22.7135 0.632812 50.7028C0.632812 78.692 22.347 101.382 49.1328 101.382Z" fill="#165098"/>
<path fill-rule="evenodd" clip-rule="evenodd" d="M23.4879 35.0002C24.5694 31.594 27.2294 28.8014 29.8066 26.5355C30.3865 26.0958 30.8007 26.2746 30.7132 26.7915C30.6718 27.2723 30.589 27.73 30.5061 28.1878C30.4233 28.6456 30.3405 29.1034 30.299 29.5841C30.1334 30.8934 30.1334 32.1158 30.2162 33.4251C30.299 35.0823 30.635 36.6526 31.2149 38.1358C31.7947 39.5321 32.462 40.9284 33.1247 42.2377C34.7907 45.9048 36.452 49.5671 38.0306 53.2341C38.207 53.666 38.3835 54.0928 38.5588 54.5169C39.1288 55.8955 39.6867 57.245 40.1936 58.6454C40.8563 60.5635 41.1876 62.3994 40.6077 64.4045C39.4434 68.4194 36.2864 71.386 33.3778 74.0046C33.303 74.0701 33.2075 74.1613 33.1002 74.2636C32.495 74.841 31.5178 75.7733 31.7993 74.4395C31.985 73.3827 32.2381 72.3444 32.4907 71.308C32.8018 70.0321 33.1122 68.759 33.295 67.458C33.6614 64.5219 32.3389 61.4535 31.1655 58.731C31.0124 58.3757 30.8618 58.0263 30.7178 57.6839C29.7449 55.3731 28.6776 53.1265 27.6128 50.8853C26.9501 49.4903 26.2883 48.0974 25.6509 46.6923C23.985 43.1171 22.2408 39.0151 23.4879 35.0002ZM61.553 35C62.6345 31.5986 65.2945 28.806 67.8717 26.5352C68.4562 26.0956 68.8704 26.2744 68.7829 26.7961C68.7415 27.2769 68.6587 27.7347 68.5758 28.1924C68.493 28.6502 68.4102 29.108 68.3687 29.5887C68.2031 30.8981 68.2031 32.1204 68.2859 33.4298C68.3687 35.0869 68.7047 36.6572 69.2846 38.1404C69.8644 39.5367 70.5317 40.933 71.1944 42.2424C72.8604 45.9094 74.5217 49.5717 76.1003 53.2388C76.2767 53.6707 76.4532 54.0975 76.6285 54.5215C77.1985 55.9001 77.7564 57.2496 78.2633 58.65C78.926 60.5681 79.2573 62.4041 78.6774 64.4091C77.5131 68.4241 74.3561 71.3906 71.4475 74.0093C71.3727 74.0747 71.2772 74.1659 71.1699 74.2682C70.5647 74.8457 69.5875 75.778 69.869 74.4441C70.0547 73.3874 70.3078 72.3491 70.5604 71.3127C70.8715 70.0367 71.1819 68.7636 71.3647 67.4626C71.7311 64.5265 70.4086 61.4581 69.2352 58.7356C69.0821 58.3803 68.9315 58.031 68.7875 57.6886C67.8207 55.3893 66.7589 53.157 65.6995 50.9297C65.0292 49.5204 64.3598 48.1132 63.716 46.6921C62.0501 43.1168 60.3059 39.0149 61.553 35Z" fill="#165098"/>
<path fill-rule="evenodd" clip-rule="evenodd" d="M48.257 19.9015C45.3485 22.4332 42.1914 25.4867 40.4426 29.062C39.1955 31.5937 39.0298 34.2123 39.6925 36.8262C40.5255 39.9666 41.6852 43.1071 42.9324 46.1606C45.3439 52.0066 48.5009 57.5048 50.8296 63.4379C51.6626 65.5299 52.5738 67.8877 52.7395 70.2454C52.9051 73.125 51.9893 76.1785 51.2438 78.8841C51.0781 79.6716 50.5811 80.7152 50.6639 81.5027C50.7467 82.1115 51.0781 81.8506 51.4141 81.5897C52.8269 80.4543 54.2397 79.145 55.4869 77.8357C58.8925 74.4343 62.7996 69.8927 62.4683 64.5733C62.3026 62.3895 61.304 60.2974 60.4756 58.2924C59.5598 55.9395 58.5657 53.6735 57.5671 51.4027C55.74 47.1269 53.8256 42.938 51.8328 38.7491C51.1701 37.2658 50.3372 35.8695 49.8401 34.3863C49.09 32.3812 48.7586 30.2844 48.6758 28.1923C48.593 26.6221 48.6758 24.9649 48.8415 23.3947C48.9243 22.3463 49.2557 21.3896 49.2557 20.3412C49.5042 19.3797 49.0072 19.2928 48.257 19.9015Z" fill="#5C9DD5"/>
</svg>
