<svg width="97" height="103" viewBox="0 0 97 103" fill="none" xmlns="http://www.w3.org/2000/svg">
<path opacity="0.2" d="M48.5 102.02C75.2858 102.02 97 79.3297 97 51.3403C97 23.351 75.2858 0.661133 48.5 0.661133C21.7142 0.661133 0 23.351 0 51.3403C0 79.3297 21.7142 102.02 48.5 102.02Z" fill="#2C5F93"/>
<path fill-rule="evenodd" clip-rule="evenodd" d="M50.3642 48.2664L26.1154 62.1404V69.7654L50.3642 55.8916L74.6128 69.7654V62.1404L50.3642 48.2664Z" fill="#1269AB"/>
<path fill-rule="evenodd" clip-rule="evenodd" d="M33.2004 39.8518L50.3647 30.1955L67.5287 39.8518L73.9367 37.3129L50.3647 24.0515L26.7928 37.3129L33.2004 39.8518Z" fill="#3FBCED"/>
<path fill-rule="evenodd" clip-rule="evenodd" d="M67.5281 41.466V62.8194L64.9788 64.2537L70.3931 67.3514L74.6128 64.9773V38.6592L67.5281 41.466ZM35.7495 64.2539L33.1791 62.8077V41.458L26.1154 38.6592V64.9774L30.335 67.3515L35.7495 64.2539Z" fill="#1269AB"/>
<path fill-rule="evenodd" clip-rule="evenodd" d="M63.4674 65.1045L50.3641 72.4763L37.2607 65.1045L31.8463 68.2023L50.3641 78.6201L68.8817 68.2023L63.4674 65.1045Z" fill="#3FBCED"/>
</svg>
