<svg width="1920" height="1217" viewBox="0 0 1920 1217" fill="none" xmlns="http://www.w3.org/2000/svg">
<rect x="-117.17" y="173.738" width="2068.29" height="977.824" fill="#EDF4FF"/>
<path fill-rule="evenodd" clip-rule="evenodd" d="M1948 240.609H-28V0.470703C301.333 73.6558 630.666 110.248 959.999 110.248C1289.33 110.248 1618.67 73.6558 1948 0.470703V240.609Z" fill="#EDF4FF"/>
<rect x="-20.3802" y="125.61" width="2012.33" height="1090.01" fill="url(#paint0_linear_9_1593)"/>
<mask id="mask0_9_1593" style="mask-type:alpha" maskUnits="userSpaceOnUse" x="-21" y="125" width="2013" height="1091">
<rect x="-20.3802" y="125.61" width="2012.33" height="1090.01" fill="white"/>
</mask>
<g mask="url(#mask0_9_1593)">
<path fill-rule="evenodd" clip-rule="evenodd" d="M1715.97 1494.55C2093.38 1494.55 2399.33 1188.61 2399.33 811.2C2399.33 433.794 2093.38 127.846 1715.97 127.846C1338.57 127.846 1032.62 433.794 1032.62 811.2C1032.62 1188.61 1338.57 1494.55 1715.97 1494.55Z" fill="#6672FA"/>
<path opacity="0.2" fill-rule="evenodd" clip-rule="evenodd" d="M1335.36 716.085C1620.19 716.085 1851.1 485.181 1851.1 200.347C1851.1 -84.4867 1620.19 -315.39 1335.36 -315.39C1050.52 -315.39 819.62 -84.4867 819.62 200.347C819.62 485.181 1050.52 716.085 1335.36 716.085ZM1335.36 542.143C1146.59 542.143 993.562 389.116 993.562 200.347C993.562 11.5783 1146.59 -141.449 1335.36 -141.449C1524.13 -141.449 1677.15 11.5783 1677.15 200.347C1677.15 389.116 1524.13 542.143 1335.36 542.143Z" fill="url(#paint1_linear_9_1593)"/>
<path opacity="0.08" fill-rule="evenodd" clip-rule="evenodd" d="M1588.06 360.42C1583.39 357.724 1577.64 357.724 1572.97 360.42L1462.58 424.153C1457.91 426.85 1455.03 431.833 1455.03 437.225V564.691C1455.03 570.084 1457.91 575.067 1462.58 577.764L1572.97 641.497C1577.64 644.193 1583.39 644.193 1588.06 641.497L1698.45 577.764C1703.12 575.067 1706 570.084 1706 564.691V437.225C1706 431.833 1703.12 426.85 1698.45 424.153L1588.06 360.42Z" fill="white"/>
<g opacity="0.2">
<mask id="mask1_9_1593" style="mask-type:alpha" maskUnits="userSpaceOnUse" x="1472" y="342" width="252" height="287">
<path fill-rule="evenodd" clip-rule="evenodd" d="M1605.45 344.967C1600.78 342.271 1595.03 342.271 1590.36 344.967L1479.97 408.7C1475.3 411.396 1472.42 416.379 1472.42 421.772V549.238C1472.42 554.631 1475.3 559.614 1479.97 562.31L1590.36 626.043C1595.03 628.74 1600.78 628.74 1605.45 626.043L1715.84 562.31C1720.51 559.614 1723.39 554.631 1723.39 549.238V421.772C1723.39 416.379 1720.51 411.396 1715.84 408.7L1605.45 344.967Z" fill="white"/>
</mask>
<g mask="url(#mask1_9_1593)">
<path fill-rule="evenodd" clip-rule="evenodd" d="M1550.28 245.14L1276.04 833.255L1273.62 832.127L1547.86 244.012L1550.28 245.14ZM1289.38 833.255L1563.62 245.14L1561.2 244.012L1286.96 832.127L1289.38 833.255ZM1576.96 245.14L1302.72 833.255L1300.3 832.127L1574.54 244.012L1576.96 245.14ZM1316.06 833.255L1590.3 245.14L1587.89 244.012L1313.64 832.127L1316.06 833.255ZM1603.65 245.14L1329.4 833.255L1326.99 832.127L1601.23 244.012L1603.65 245.14ZM1342.75 833.255L1616.99 245.14L1614.57 244.012L1340.33 832.127L1342.75 833.255ZM1630.33 245.14L1356.09 833.255L1353.67 832.127L1627.91 244.012L1630.33 245.14ZM1369.43 833.255L1643.67 245.14L1641.25 244.012L1367.01 832.127L1369.43 833.255ZM1657.01 245.14L1382.77 833.255L1380.35 832.127L1654.6 244.012L1657.01 245.14ZM1396.11 833.255L1670.36 245.14L1667.94 244.012L1393.7 832.127L1396.11 833.255ZM1683.7 245.14L1409.46 833.255L1407.04 832.127L1681.28 244.012L1683.7 245.14ZM1422.8 833.255L1697.04 245.14L1694.62 244.012L1420.38 832.127L1422.8 833.255ZM1710.38 245.14L1436.14 833.255L1433.72 832.127L1707.96 244.012L1710.38 245.14ZM1449.48 833.255L1723.72 245.14L1721.31 244.012L1447.06 832.127L1449.48 833.255ZM1737.07 245.14L1462.82 833.255L1460.41 832.127L1734.65 244.012L1737.07 245.14ZM1476.17 833.255L1750.41 245.14L1747.99 244.012L1473.75 832.127L1476.17 833.255ZM1763.75 245.14L1489.51 833.255L1487.09 832.127L1761.33 244.012L1763.75 245.14ZM1502.85 833.255L1777.09 245.14L1774.68 244.012L1500.43 832.127L1502.85 833.255ZM1790.44 245.14L1516.19 833.255L1513.77 832.127L1788.02 244.012L1790.44 245.14ZM1529.54 833.255L1803.78 245.14L1801.36 244.012L1527.12 832.127L1529.54 833.255ZM1817.12 245.14L1542.88 833.255L1540.46 832.127L1814.7 244.012L1817.12 245.14ZM1556.22 833.255L1830.46 245.14L1828.04 244.012L1553.8 832.127L1556.22 833.255ZM1843.8 245.14L1569.56 833.255L1567.14 832.127L1841.39 244.012L1843.8 245.14ZM1582.9 833.255L1857.15 245.14L1854.73 244.012L1580.48 832.127L1582.9 833.255ZM1870.49 245.14L1596.25 833.255L1593.83 832.127L1868.07 244.012L1870.49 245.14ZM1883.83 245.14L1609.59 833.255L1607.17 832.127L1881.41 244.012L1883.83 245.14Z" fill="white"/>
</g>
</g>
<path opacity="0.1" fill-rule="evenodd" clip-rule="evenodd" d="M1688.35 743.072C1709.19 743.072 1726.08 726.179 1726.08 705.341C1726.08 684.502 1709.19 667.61 1688.35 667.61C1667.51 667.61 1650.62 684.502 1650.62 705.341C1650.62 726.179 1667.51 743.072 1688.35 743.072Z" fill="white"/>
<path opacity="0.6" fill-rule="evenodd" clip-rule="evenodd" d="M2092.88 1517.12C2340.44 1517.12 2541.13 1316.43 2541.13 1068.86C2541.13 821.3 2340.44 620.61 2092.88 620.61C1845.31 620.61 1644.62 821.3 1644.62 1068.86C1644.62 1316.43 1845.31 1517.12 2092.88 1517.12ZM2092.88 1365.94C1928.81 1365.94 1795.8 1232.93 1795.8 1068.86C1795.8 904.796 1928.81 771.792 2092.88 771.792C2256.94 771.792 2389.95 904.796 2389.95 1068.86C2389.95 1232.93 2256.94 1365.94 2092.88 1365.94Z" fill="url(#paint2_linear_9_1593)"/>
<path opacity="0.08" fill-rule="evenodd" clip-rule="evenodd" d="M1285.16 715.689C1289.83 712.992 1295.58 712.992 1300.25 715.689L1412.8 780.672C1417.48 783.368 1420.35 788.351 1420.35 793.744V923.711C1420.35 929.103 1417.48 934.086 1412.8 936.783L1300.25 1001.77C1295.58 1004.46 1289.83 1004.46 1285.16 1001.77L1172.6 936.783C1167.93 934.086 1165.05 929.103 1165.05 923.711V793.744C1165.05 788.351 1167.93 783.368 1172.6 780.672L1285.16 715.689Z" fill="white"/>
<g opacity="0.2">
<mask id="mask2_9_1593" style="mask-type:alpha" maskUnits="userSpaceOnUse" x="1147" y="697" width="256" height="292">
<path fill-rule="evenodd" clip-rule="evenodd" d="M1267.47 699.966C1272.14 697.27 1277.89 697.27 1282.56 699.966L1395.12 764.95C1399.79 767.646 1402.66 772.629 1402.66 778.022V907.988C1402.66 913.381 1399.79 918.364 1395.12 921.061L1282.56 986.044C1277.89 988.74 1272.14 988.74 1267.47 986.044L1154.91 921.061C1150.24 918.364 1147.37 913.381 1147.37 907.988V778.022C1147.37 772.629 1150.24 767.646 1154.91 764.95L1267.47 699.966Z" fill="white"/>
</mask>
<g mask="url(#mask2_9_1593)">
<path fill-rule="evenodd" clip-rule="evenodd" d="M1323.47 598.492L1602.44 1196.76L1604.9 1195.61L1325.93 597.345L1323.47 598.492ZM1588.87 1196.76L1309.89 598.492L1312.35 597.345L1591.33 1195.61L1588.87 1196.76ZM1296.32 598.492L1575.3 1196.76L1577.76 1195.61L1298.78 597.345L1296.32 598.492ZM1561.72 1196.76L1282.75 598.492L1285.21 597.345L1564.18 1195.61L1561.72 1196.76ZM1269.18 598.492L1548.15 1196.76L1550.61 1195.61L1271.64 597.345L1269.18 598.492ZM1534.58 1196.76L1255.6 598.492L1258.06 597.345L1537.04 1195.61L1534.58 1196.76ZM1242.03 598.492L1521.01 1196.76L1523.47 1195.61L1244.49 597.345L1242.03 598.492ZM1507.44 1196.76L1228.46 598.492L1230.92 597.345L1509.9 1195.61L1507.44 1196.76ZM1214.89 598.492L1493.86 1196.76L1496.32 1195.61L1217.35 597.345L1214.89 598.492ZM1480.29 1196.76L1201.31 598.492L1203.77 597.345L1482.75 1195.61L1480.29 1196.76ZM1187.74 598.492L1466.72 1196.76L1469.18 1195.61L1190.2 597.345L1187.74 598.492ZM1453.15 1196.76L1174.17 598.492L1176.63 597.345L1455.61 1195.61L1453.15 1196.76ZM1160.6 598.492L1439.57 1196.76L1442.03 1195.61L1163.06 597.345L1160.6 598.492ZM1426 1196.76L1147.03 598.492L1149.49 597.345L1428.46 1195.61L1426 1196.76ZM1133.45 598.492L1412.43 1196.76L1414.89 1195.61L1135.91 597.345L1133.45 598.492ZM1398.86 1196.76L1119.88 598.492L1122.34 597.345L1401.32 1195.61L1398.86 1196.76ZM1106.31 598.492L1385.28 1196.76L1387.74 1195.61L1108.77 597.345L1106.31 598.492ZM1371.71 1196.76L1092.73 598.492L1095.19 597.345L1374.17 1195.61L1371.71 1196.76ZM1079.16 598.492L1358.14 1196.76L1360.6 1195.61L1081.62 597.345L1079.16 598.492ZM1344.57 1196.76L1065.59 598.492L1068.05 597.345L1347.03 1195.61L1344.57 1196.76ZM1052.02 598.492L1330.99 1196.76L1333.45 1195.61L1054.48 597.345L1052.02 598.492ZM1317.42 1196.76L1038.45 598.492L1040.91 597.345L1319.88 1195.61L1317.42 1196.76ZM1024.88 598.492L1303.85 1196.76L1306.31 1195.61L1027.34 597.345L1024.88 598.492ZM1290.27 1196.76L1011.3 598.492L1013.76 597.345L1292.73 1195.61L1290.27 1196.76ZM997.73 598.492L1276.71 1196.76L1279.17 1195.61L1000.19 597.345L997.73 598.492ZM984.158 598.492L1263.13 1196.76L1265.59 1195.61L986.618 597.345L984.158 598.492Z" fill="white"/>
</g>
</g>
</g>
<path fill-rule="evenodd" clip-rule="evenodd" d="M1980 1216.12H-60V968.349C280 1043.86 620 1081.61 960 1081.61C1300 1081.61 1640 1043.86 1980 968.349V1216.12Z" fill="white"/>
<defs>
<linearGradient id="paint0_linear_9_1593" x1="-20.3802" y1="125.61" x2="-20.3802" y2="1215.62" gradientUnits="userSpaceOnUse">
<stop stop-color="#FAFBFB" stop-opacity="0.01"/>
<stop offset="1" stop-color="#F1F8FF"/>
</linearGradient>
<linearGradient id="paint1_linear_9_1593" x1="1851.1" y1="-314.016" x2="822.369" y2="-314.016" gradientUnits="userSpaceOnUse">
<stop stop-color="white" stop-opacity="0.01"/>
<stop offset="1" stop-color="white"/>
</linearGradient>
<linearGradient id="paint2_linear_9_1593" x1="2541.13" y1="621.805" x2="1647.01" y2="621.805" gradientUnits="userSpaceOnUse">
<stop stop-color="white"/>
<stop offset="1" stop-color="white" stop-opacity="0.01"/>
</linearGradient>
</defs>
</svg>
