<svg width="38" height="27" viewBox="0 0 38 27" fill="none" xmlns="http://www.w3.org/2000/svg">
<path d="M9.02264 23.3122C9.02761 23.3097 9.03259 23.3097 9.03756 23.3122C9.03259 23.3579 9.04254 23.3985 9.08234 23.4239C9.30125 23.5534 9.52763 23.6728 9.72912 23.8302C9.89828 23.9622 10.1495 23.9597 10.2615 24.1755C10.264 24.1806 10.2864 24.1832 10.2913 24.1781C10.3436 24.1324 10.3809 24.1882 10.4107 24.2085C10.6794 24.3761 10.9754 24.4904 11.259 24.625C11.4779 24.7316 11.7043 24.8357 11.9381 24.9145C12.1471 24.9856 12.3511 25.0744 12.5576 25.1557C12.6222 25.1811 12.6197 25.2141 12.5849 25.2725C12.4182 25.5442 12.1969 25.7727 12.0227 26.0394C11.871 26.273 11.6769 26.4786 11.5351 26.7199C11.4307 26.8976 11.2118 26.989 11.0923 26.9383C10.9182 26.8672 10.7416 26.8925 10.5699 26.8773C10.1669 26.8468 9.76893 26.7732 9.37339 26.7046C9.05498 26.6488 8.73656 26.5828 8.42312 26.499C8.1445 26.4253 7.8634 26.3568 7.58976 26.2679C7.40568 26.2095 7.21911 26.1612 7.04 26.0825C6.85591 26.0013 6.65193 25.9683 6.46536 25.8819C6.32107 25.8159 6.16435 25.7778 6.02007 25.7042C5.90564 25.6458 5.76882 25.6305 5.65936 25.5645C5.52503 25.4833 5.37577 25.4274 5.23896 25.3665C5.09965 25.3055 4.96283 25.2319 4.8285 25.1608C4.60959 25.0465 4.38072 24.9526 4.17425 24.8129C3.97524 24.6758 3.75384 24.5691 3.56976 24.4142C3.45781 24.3228 3.32597 24.2822 3.21651 24.1959C3.00755 24.0333 2.78864 23.8886 2.58217 23.721C2.27122 23.4671 1.95529 23.2157 1.67916 22.9262C1.52244 22.7612 1.34333 22.6215 1.1891 22.4514C1.03984 22.2863 0.907995 22.101 0.741324 21.9511C0.70401 21.9156 0.70401 21.8648 0.70401 21.814C0.706498 21.4712 0.713961 21.131 0.771176 20.7882C0.838342 20.3819 0.815953 19.968 0.870681 19.5566C0.907995 19.2875 0.94531 19.0158 0.962723 18.7441C0.982624 18.4267 1.02491 18.1092 1.08213 17.7969C1.12193 17.5785 1.09208 17.3525 1.17666 17.1418C1.19656 17.0935 1.23387 17.0504 1.2289 16.9894C1.21397 16.8371 1.28114 16.6949 1.27368 16.5425C1.2687 16.3826 1.31845 16.2251 1.35577 16.0728C1.40303 15.8747 1.38064 15.669 1.44284 15.4735C1.46025 15.4176 1.50005 15.377 1.50254 15.311C1.50751 15.1485 1.53488 14.9885 1.57219 14.8285C1.63936 14.5441 1.6717 14.2496 1.74384 13.9652C1.82842 13.6249 1.89061 13.2796 1.98514 12.9393C2.08464 12.5813 2.14186 12.2105 2.2538 11.8551C2.2936 11.7281 2.25878 11.5859 2.33092 11.4818C2.40306 11.3777 2.40057 11.2609 2.44037 11.1517C2.4553 11.1136 2.44037 11.0679 2.46028 11.0273C2.54983 10.847 2.57222 10.6438 2.63441 10.4534C2.71153 10.2248 2.79362 9.99885 2.84586 9.7627C2.89063 9.56464 3.00258 9.38435 3.02994 9.18883C3.05979 8.97045 3.23144 8.81302 3.23144 8.5921C3.23144 8.58195 3.24637 8.57179 3.25383 8.56163C3.29363 8.51593 3.30109 8.45752 3.31602 8.39912C3.36826 8.17566 3.4603 7.96491 3.54986 7.75669C3.62697 7.57894 3.71653 7.39357 3.76877 7.21836C3.84091 6.9746 3.95285 6.7486 4.03992 6.51245C4.1444 6.23059 4.25634 5.94366 4.41555 5.68211C4.49515 5.55261 4.51008 5.39518 4.59466 5.27075C4.67675 5.14633 4.70412 4.99143 4.79865 4.87463C4.91556 4.73243 4.95537 4.54706 5.03995 4.38709C5.10711 4.25759 5.2091 4.14586 5.25637 4.00112C5.27378 3.9478 5.2912 3.88686 5.32602 3.84369C5.44294 3.69133 5.5723 3.54913 5.64444 3.36377C5.65439 3.33584 5.68424 3.32314 5.70912 3.3079C5.8136 3.24442 5.94544 3.19364 6.0151 3.11238C6.18674 2.91178 6.42804 2.83052 6.62208 2.67309C6.66188 2.64008 6.69919 2.60453 6.74895 2.5766C6.99522 2.44202 7.23901 2.30236 7.47533 2.15254C7.54747 2.10683 7.63454 2.10176 7.69673 2.04335C7.8236 1.92655 7.98281 1.8656 8.12709 1.78181C8.34103 1.65739 8.57486 1.56597 8.79626 1.45171C9.00025 1.34506 9.20921 1.24856 9.42812 1.17239C9.63957 1.09875 9.84355 0.999717 10.05 0.918461C10.2441 0.842283 10.448 0.794037 10.6396 0.702624C10.8784 0.590896 11.1446 0.537572 11.4008 0.466473C11.6968 0.385216 11.9904 0.291264 12.2939 0.240478C12.5401 0.197311 12.7814 0.128751 13.0302 0.0906621C13.2491 0.0576517 13.473 0.050034 13.6894 0.00432728C13.7765 -0.0134475 13.8461 0.0246414 13.8909 0.0982799C13.983 0.243018 14.0601 0.395373 14.1198 0.557886C14.1496 0.639142 14.1272 0.717859 14.0377 0.735634C13.7616 0.788959 13.5004 0.893068 13.2292 0.961628C12.968 1.02765 12.7143 1.10637 12.463 1.20286C12.1894 1.30697 11.9133 1.40346 11.6371 1.50249C11.3759 1.59644 11.1222 1.71579 10.8734 1.84021C10.7789 1.88592 10.667 1.89354 10.5874 1.95448C10.2515 2.19571 9.85848 2.33283 9.5127 2.5639C9.25399 2.73657 8.98284 2.88893 8.72661 3.06414C8.44551 3.25458 8.17436 3.46026 7.90818 3.66848C7.86092 3.70657 7.79126 3.69641 7.75892 3.7472C7.69922 3.83861 7.60966 3.90209 7.52509 3.96303C7.1594 4.22204 6.86835 4.56992 6.50018 4.82384C6.48774 4.834 6.47282 4.8467 6.46784 4.86193C6.44546 4.92033 6.43302 4.96096 6.52257 4.98889C6.63203 5.0219 6.67183 4.92795 6.74646 4.9051C6.97034 4.83146 7.16935 4.70196 7.37085 4.58769C7.60966 4.45311 7.87584 4.37185 8.10719 4.22204C8.17933 4.17633 8.25645 4.13062 8.33356 4.09761C8.4878 4.03413 8.64452 3.97827 8.80124 3.92494C8.86094 3.90463 8.88582 3.84369 8.94552 3.8183C9.31866 3.6634 9.68435 3.49581 10.0575 3.33584C10.1893 3.27997 10.3237 3.23427 10.4605 3.1911C10.5874 3.15047 10.7192 3.08191 10.8461 3.02859C11.152 2.89908 11.473 2.79751 11.7914 2.70356C12.1396 2.60199 12.4829 2.47757 12.8411 2.40139C13.1969 2.32521 13.5451 2.21348 13.9034 2.14238C14.2317 2.07636 14.5626 2.0078 14.8959 1.96971C15.3188 1.91893 15.7367 1.84021 16.1621 1.80212C16.2865 1.79197 16.4109 1.79197 16.5328 1.77927C17.0005 1.72341 17.4681 1.6904 17.9383 1.68532C18.9159 1.67516 19.8911 1.665 20.8662 1.73356C20.9682 1.74118 21.0727 1.74372 21.1747 1.76403C21.4682 1.82752 21.7717 1.84275 22.0678 1.87068C22.523 1.91639 22.9708 2.01034 23.421 2.07128C23.8141 2.12461 24.1997 2.22872 24.5852 2.33029C24.8887 2.40901 25.1897 2.4928 25.4932 2.56898C25.6649 2.61215 25.8092 2.72641 25.9883 2.74165C26.043 2.74673 26.1027 2.73657 26.1574 2.76704C26.3564 2.87877 26.5803 2.9194 26.7918 2.99304C26.9112 3.03366 27.0156 3.1073 27.1375 3.14031C27.2171 3.16063 27.2968 3.17586 27.3714 3.21395C27.5356 3.29521 27.7072 3.36377 27.8739 3.43487C28.1052 3.5339 28.3366 3.62785 28.5654 3.72688C28.7694 3.81576 28.9684 3.91987 29.1749 3.99858C29.3689 4.07222 29.5406 4.18649 29.7321 4.2652C29.8565 4.31599 29.9759 4.39471 30.0978 4.45819C30.2446 4.53437 30.4063 4.58515 30.5406 4.67657C30.7222 4.79845 30.9212 4.87717 31.1128 4.97366C31.1476 4.99143 31.2098 5.0473 31.2396 4.97366C31.262 4.9178 31.2546 4.85685 31.1924 4.80861C31.0829 4.71973 30.9685 4.64102 30.874 4.52421C30.7297 4.34392 30.5232 4.22458 30.3491 4.06968C30.1575 3.89955 29.9585 3.72942 29.7421 3.58722C29.6028 3.49581 29.4933 3.36123 29.354 3.27489C29.0232 3.06921 28.7222 2.81529 28.3739 2.63754C28.3217 2.61215 28.2769 2.55628 28.2122 2.60199C28.2047 2.60199 28.1973 2.59945 28.1898 2.59691C28.1699 2.5512 28.145 2.50804 28.1027 2.47503C27.9261 2.34299 27.7271 2.24395 27.5331 2.15254C27.1948 1.99257 26.8564 1.83006 26.5131 1.68278C26.2345 1.56089 25.9509 1.45171 25.6624 1.36283C25.6002 1.34252 25.5604 1.28665 25.4982 1.28157C25.1848 1.24603 24.9086 1.08097 24.6051 1.00733C24.2917 0.931157 23.9832 0.814351 23.6648 0.735634C23.5554 0.707702 23.5404 0.659456 23.5877 0.568043C23.6598 0.428384 23.7469 0.291264 23.7991 0.143987C23.8389 0.0322591 23.8987 -0.0032905 24.0006 0.0094058C24.4832 0.0728873 24.9708 0.0932014 25.4435 0.2354C25.7171 0.319196 26.0032 0.352206 26.2768 0.44108C26.5082 0.517258 26.747 0.557886 26.9709 0.654378C27.0778 0.700084 27.1873 0.730556 27.2968 0.771184C27.4734 0.834665 27.65 0.893068 27.8241 0.966707C28.0306 1.05304 28.2296 1.15715 28.4386 1.23841C28.6973 1.34252 28.951 1.45678 29.1973 1.58375C29.456 1.71833 29.7122 1.85799 29.9685 1.99511C30.0307 2.02812 30.0904 2.06875 30.1501 2.09922C30.2919 2.17286 30.4187 2.27189 30.5605 2.3506C30.7073 2.43186 30.8565 2.50804 30.9934 2.60453C31.2073 2.75435 31.4387 2.86861 31.6426 3.03366C31.7571 3.12508 31.8964 3.18348 31.971 3.3206C31.976 3.33076 31.9884 3.34853 31.9934 3.34599C32.1302 3.31044 32.1327 3.43487 32.175 3.50597C32.2969 3.71419 32.4213 3.92241 32.5357 4.1357C32.6576 4.36678 32.7546 4.61308 32.8889 4.834C33.0531 5.10316 33.1551 5.40279 33.3093 5.67703C33.4163 5.87256 33.4984 6.08078 33.5755 6.29153C33.6377 6.46166 33.7223 6.6191 33.7895 6.78415C33.9138 7.0914 34.0407 7.39865 34.1601 7.7059C34.282 8.02077 34.3815 8.34326 34.5059 8.65812C34.5955 8.88412 34.6626 9.11773 34.7422 9.3488C34.8119 9.55194 34.8989 9.75255 34.9487 9.96076C34.996 10.1563 35.0656 10.3442 35.1154 10.5372C35.1726 10.7632 35.2696 10.9841 35.3144 11.2101C35.3766 11.5173 35.4587 11.822 35.5407 12.1217C35.6005 12.3375 35.6477 12.5559 35.7124 12.7717C35.8094 13.0942 35.8467 13.4319 35.9413 13.757C36.0034 13.9779 36.0482 14.2064 36.088 14.4299C36.1452 14.7523 36.2174 15.0748 36.2671 15.3999C36.3045 15.6538 36.3492 15.9052 36.404 16.1566C36.4288 16.2708 36.394 16.3902 36.4363 16.4943C36.5358 16.7279 36.5258 16.9793 36.5681 17.2205C36.6229 17.5303 36.6378 17.8452 36.6851 18.1575C36.7398 18.5181 36.807 18.8812 36.8119 19.2443C36.8169 19.5185 36.9189 19.775 36.9089 20.0518C36.904 20.166 36.9089 20.2879 36.9214 20.4047C36.9761 20.8694 37.0184 21.3341 37.0209 21.8013C37.0209 21.9156 36.9786 22.007 36.904 22.068C36.6353 22.2838 36.4512 22.5809 36.1925 22.8043C36.1403 22.85 36.088 22.8983 36.0408 22.9465C35.9238 23.0659 35.7547 23.1395 35.7024 23.3198H35.7049C35.6726 23.3173 35.6353 23.3071 35.6079 23.33C35.486 23.4366 35.3293 23.5103 35.2273 23.6245C35.0034 23.8784 34.7074 24.0232 34.4537 24.2339C34.3044 24.3584 34.1377 24.4752 33.9512 24.5564C33.8591 24.5971 33.7372 24.6275 33.675 24.6986C33.5631 24.8205 33.4163 24.8815 33.287 24.9526C32.9312 25.1506 32.578 25.3665 32.1924 25.496C31.966 25.5721 31.762 25.694 31.5406 25.7804C31.2173 25.9048 30.8889 26.019 30.5655 26.1384C30.2371 26.2577 29.8963 26.339 29.558 26.4279C29.1774 26.5269 28.7968 26.6259 28.4112 26.6996C28.3341 26.7148 28.252 26.6996 28.1799 26.725C27.9609 26.8062 27.7271 26.8214 27.5007 26.8367C27.3191 26.8494 27.1351 26.8595 26.9634 26.9052C26.7868 26.9535 26.6102 26.8621 26.441 26.9383C26.4037 26.9535 26.3863 26.9154 26.3614 26.8925C26.2569 26.7961 26.1723 26.6818 26.0927 26.565C25.936 26.3314 25.7445 26.1232 25.5902 25.8845C25.5504 25.821 25.5206 25.7118 25.4037 25.727C25.3912 25.562 25.2768 25.4579 25.1823 25.3436C25.0977 25.242 25.1052 25.1582 25.232 25.1201C25.3887 25.0744 25.5405 25.0186 25.6848 24.9449C25.7768 24.8992 25.8813 24.8815 25.9708 24.8332C26.1972 24.7139 26.4385 24.6301 26.6649 24.5133C26.9609 24.3609 27.2694 24.2339 27.5555 24.0587C27.854 23.8784 28.1624 23.7134 28.4535 23.5204C28.6724 23.3757 28.8913 23.2335 29.1102 23.0913C29.2844 22.9795 29.4311 22.8348 29.6078 22.7231C29.6749 22.6799 29.7968 22.6469 29.7769 22.5149C29.9859 22.4615 30.1376 22.3092 30.2943 22.1746C30.3988 22.0857 30.5033 21.9892 30.6003 21.8851C30.8093 21.6591 31.0904 21.5068 31.2695 21.2427C31.3367 21.1437 31.4809 21.1157 31.5282 21.0192C31.6352 20.8034 31.8889 20.7171 31.9685 20.4835C31.971 20.4758 31.981 20.4733 31.9884 20.4682C32.068 20.4276 32.0879 20.3438 32.1327 20.2752C31.966 20.2219 31.9586 20.2118 31.8466 20.3336C31.6377 20.5622 31.359 20.6815 31.1202 20.8643C30.8889 21.0421 30.6302 21.1868 30.3839 21.3443C30.0406 21.5601 29.6998 21.7759 29.3217 21.9181C29.2893 21.9308 29.267 21.9511 29.257 21.9867C29.2471 22.0197 29.2222 22.0426 29.1898 22.0578C28.66 22.2838 28.15 22.5555 27.6177 22.7739C27.1624 22.9618 26.6923 23.1065 26.2395 23.2995C26.1972 23.3173 26.1574 23.3477 26.1151 23.3528C25.8614 23.3909 25.6226 23.4899 25.3738 23.5483C25.0828 23.6169 24.7992 23.7159 24.5056 23.7743C24.2643 23.8226 24.0181 23.8556 23.7817 23.9267C23.5031 24.013 23.2071 24.0105 22.9235 24.0867C22.7991 24.1197 22.6648 24.1273 22.5329 24.1375C22.3762 24.1501 22.2295 24.2162 22.0727 24.2162C21.8115 24.2162 21.5528 24.2492 21.2966 24.2771C20.9035 24.3203 20.508 24.3431 20.115 24.366C19.615 24.3914 19.1149 24.3838 18.6149 24.3965C18.3711 24.4041 18.1298 24.3609 17.8836 24.3685C17.5875 24.3761 17.2915 24.3406 16.9955 24.3228C16.5353 24.2974 16.0775 24.2543 15.6198 24.1933C15.2641 24.1451 14.9059 24.1095 14.5526 24.0359C14.3909 24.0029 14.2268 23.9851 14.0651 23.9546C13.6695 23.8784 13.2765 23.7972 12.8884 23.688C12.5824 23.6017 12.274 23.5052 11.9655 23.4265C11.5302 23.3173 11.1247 23.1294 10.6968 23.01C10.4082 22.9313 10.1421 22.7789 9.85848 22.6723C9.59977 22.5758 9.34852 22.4514 9.10224 22.3244C8.749 22.1467 8.40571 21.9511 8.04997 21.7734C7.8634 21.6794 7.70419 21.5398 7.51016 21.456C7.36836 21.3951 7.22657 21.3138 7.10716 21.2198C6.90069 21.0599 6.6768 20.9253 6.47033 20.7628C6.25391 20.5952 6.00515 20.4682 5.81111 20.2676C5.76384 20.2194 5.70414 20.2016 5.65688 20.2498C5.60961 20.2981 5.62703 20.359 5.67429 20.4073C5.89569 20.6358 6.06236 20.9202 6.32854 21.103C6.35093 21.1183 6.36088 21.1538 6.38326 21.1716C6.47033 21.2452 6.50018 21.3646 6.5972 21.4281C6.68427 21.4839 6.77631 21.5398 6.8385 21.6236C6.97781 21.814 7.18179 21.9334 7.35095 22.0883C7.67434 22.3879 8.03754 22.6469 8.38829 22.9161C8.43307 22.9491 8.45546 23.0049 8.5077 23.0253C8.59974 23.0608 8.68432 23.1065 8.76641 23.1649C8.84104 23.2411 8.91318 23.3223 9.02264 23.3122ZM22.1921 12.754C22.1299 12.7514 22.0777 12.7666 22.0479 12.8301C21.9931 12.9469 21.9036 13.0409 21.8389 13.1552C21.7021 13.3964 21.5926 13.6503 21.4906 13.9093C21.411 14.1125 21.4085 14.3283 21.3364 14.5289C21.3041 14.6203 21.2966 14.7244 21.2991 14.8285C21.3041 15.0748 21.3065 15.3186 21.2991 15.5649C21.2916 15.7807 21.3737 15.9763 21.421 16.1794C21.4732 16.4003 21.5578 16.6162 21.6523 16.8244C21.7021 16.9361 21.7493 17.0453 21.8289 17.1393C21.8563 17.1723 21.8762 17.2078 21.8936 17.2459C22.0006 17.4744 22.1847 17.6446 22.3538 17.8147C22.5305 17.9924 22.7344 18.1524 22.9683 18.2641C23.1971 18.3733 23.421 18.4774 23.6648 18.5511C23.9459 18.6349 24.232 18.5917 24.5156 18.5942C24.6524 18.5942 24.7942 18.5587 24.9285 18.5206C25.2047 18.4419 25.4634 18.3149 25.7072 18.16C25.7594 18.127 25.7818 18.0889 25.8042 18.0407C25.8415 18.0381 25.8813 18.0458 25.9111 18.0204C26.0405 17.9112 26.1823 17.8147 26.2917 17.6877C26.4311 17.5252 26.5505 17.3449 26.6649 17.1621C26.8714 16.8345 27.0057 16.4714 27.1027 16.0956C27.1176 16.0347 27.1176 15.9712 27.1326 15.9102C27.2395 15.4532 27.2644 14.991 27.1599 14.5365C27.1152 14.3384 27.1848 14.0998 26.9982 13.9398C26.9933 13.9347 26.9957 13.9245 26.9957 13.9144C26.8739 13.3964 26.5704 12.9825 26.2395 12.594C26.0579 12.3807 25.8291 12.2156 25.5778 12.0836C25.4236 12.0049 25.2768 11.9033 25.1126 11.8551C24.7942 11.7611 24.4683 11.7382 24.135 11.7357C23.7892 11.7332 23.4658 11.8144 23.1648 11.9566C22.8265 12.1166 22.5081 12.3197 22.2518 12.6092C22.212 12.6524 22.1897 12.6955 22.1921 12.754ZM16.3786 15.085C16.3885 14.9479 16.3587 14.7193 16.3188 14.4984C16.1273 13.47 15.6397 12.6371 14.7293 12.1141C14.0203 11.7052 13.2715 11.6722 12.5178 11.9668C11.9531 12.1877 11.5152 12.5838 11.1819 13.0917C10.6844 13.8534 10.5078 14.6965 10.6048 15.6005C10.6769 16.2708 10.9033 16.8777 11.3113 17.411C11.8162 18.0712 12.4755 18.4749 13.3014 18.5358C14.1049 18.5942 14.8014 18.3022 15.3661 17.7258C16.0502 17.0275 16.3587 16.1591 16.3786 15.085Z" fill="white"/>
</svg>
