<svg width="51" height="52" viewBox="0 0 51 52" fill="none" xmlns="http://www.w3.org/2000/svg">
<path d="M25.641 51.0067C39.4965 51.0067 50.7286 39.7746 50.7286 25.9191C50.7286 12.0636 39.4965 0.831543 25.641 0.831543C11.7855 0.831543 0.553398 12.0636 0.553398 25.9191C0.553398 39.7746 11.7855 51.0067 25.641 51.0067Z" fill="#4E6297"/>
<path d="M36.93 18.1655C36.93 16.2872 35.273 14.6299 33.394 14.6299H19.141C17.2628 14.6299 15.6055 16.2872 15.6055 18.1655V32.4187C15.6055 34.297 17.2628 35.9543 19.141 35.9543H26.323V27.8886H23.671V24.3529H26.323V22.9166C26.323 20.4858 28.091 18.3865 30.301 18.3865H33.173V21.9222H30.301C29.969 21.9222 29.638 22.2536 29.638 22.9166V24.3529H33.173V27.8886H29.638V35.9543H33.394C35.273 35.9543 36.93 34.297 36.93 32.4187V18.1655Z" fill="white"/>
</svg>
