<svg width="127" height="101" viewBox="0 0 127 101" fill="none" xmlns="http://www.w3.org/2000/svg">
<g filter="url(#filter0_d_26_2043)">
<path fill-rule="evenodd" clip-rule="evenodd" d="M72.0679 1.3475C70.3096 1.90516 68.7472 2.7616 65.5255 4.93523C62.2705 7.13099 61.4923 7.24658 56.958 6.20696C53.661 5.45115 50.9583 5.39694 50.282 6.0733C49.5383 6.81727 49.6813 8.81084 50.611 10.6567C51.0612 11.5506 52.4918 13.7893 53.79 15.6311L56.1505 18.9802H63.2459H70.3417L70.9411 17.812C71.2707 17.1696 72.533 14.9754 73.7465 12.9363C77.1199 7.26683 77.8651 4.64207 76.7261 2.43946C75.9544 0.947476 74.4456 0.593561 72.0679 1.3475ZM57.6964 22.1736C57.7995 22.5593 57.8861 23.0499 57.8883 23.264C57.8917 23.5609 59.2174 23.6534 63.4665 23.6534H69.04L69.1674 22.563L69.2945 21.4726H63.4017H57.5085L57.6964 22.1736ZM57.5771 26.6131C55.8296 31.3124 54.524 34.178 52.3391 38.11C45.6649 50.1215 44.4776 52.3568 43.2682 55.1919C41.0578 60.3722 40.4064 62.9275 40.2204 67.1502C40.0923 70.0494 40.1764 71.4772 40.583 73.3044C42.571 82.2398 49.4882 87.0955 61.1119 87.7145C72.7421 88.3342 81.3195 84.8078 84.6533 78.0358C86.1855 74.9235 86.5724 73.3187 86.7609 69.2945C86.9092 66.124 86.8341 65.1395 86.2659 62.8144C84.8867 57.1733 82.5632 52.0708 76.8031 42.0345C73.2558 35.8531 70.9146 31.1124 69.9342 28.1256L69.264 26.0831L63.5363 26.0367C58.0715 25.9922 57.7983 26.0186 57.5771 26.6131ZM65.9296 47.9688L66.0218 49.3853L68.0496 50.2689C69.1649 50.7549 70.0189 51.3088 69.9469 51.5001C69.875 51.6917 69.498 52.7245 69.1089 53.7952C68.7201 54.8663 68.2982 55.7424 68.1714 55.7424C68.045 55.7424 67.2895 55.4542 66.4928 55.1019C65.5757 54.6959 64.5616 54.4962 63.7273 54.5567C62.5555 54.6414 62.4101 54.738 62.4101 55.4308C62.4101 56.096 62.7848 56.3948 64.979 57.4783C67.9823 58.9616 68.9777 59.799 69.7656 61.5059C71.2345 64.6887 69.5911 68.883 66.3997 70.0964C65.7691 70.336 65.6813 70.58 65.6813 72.0906V73.8119H63.1889H60.6966V72.2959V70.78L58.9052 70.1111C55.872 68.9789 55.8714 68.9774 56.8319 66.2953C57.2842 65.032 57.6952 63.9528 57.745 63.897C57.7949 63.8413 58.4126 64.1777 59.118 64.6444C61.5281 66.2395 64.8918 65.9788 64.6874 64.2129C64.6064 63.5135 64.1877 63.178 62.0879 62.1309C58.6005 60.3922 58.0179 59.9364 57.2478 58.3456C55.8817 55.5234 57.0587 51.8253 59.7623 50.4458C60.9885 49.8203 61.0081 49.7835 61.0081 48.0902V46.3699L63.4226 46.4609L65.837 46.5518L65.9296 47.9688ZM1.26278 58.7186C-0.197427 59.7414 0.917277 61.3502 3.08656 61.3502C3.75606 61.3502 4.96983 61.7483 6.05463 62.3237C7.06403 62.859 8.53981 63.64 9.33425 64.059C11.1655 65.0255 13.9018 65.4124 16.2652 65.0395C18.2301 64.7295 19.0052 64.3977 21.8854 62.6353C23.6494 61.5558 23.8553 61.5059 26.5586 61.5059H29.3864L32.1903 63.1225C33.7325 64.012 35.5201 64.8335 36.1625 64.9488C37.2411 65.142 37.3311 65.1015 37.3352 64.4223C37.3373 64.0179 37.4215 63.3805 37.5218 63.006C37.6779 62.4247 37.5289 62.2783 36.5002 62.0013C35.8379 61.8231 34.5973 61.2315 33.7434 60.6872C30.9258 58.8912 29.6148 58.4597 26.905 58.4366C23.9506 58.4111 22.7521 58.7734 19.4317 60.695C17.0126 62.0951 16.8911 62.129 14.2828 62.129C11.6964 62.129 11.5418 62.0873 9.43893 60.8193C6.70046 59.1678 5.48544 58.6771 3.52147 58.4295C2.35785 58.2827 1.77932 58.3566 1.26278 58.7186ZM98.0606 58.5335C96.6328 58.7908 94.3754 59.8267 92.6298 61.0259C92.1157 61.3788 91.1584 61.815 90.5026 61.9948L89.31 62.3219L89.5256 63.6276C89.6443 64.3453 89.781 64.9772 89.8296 65.0307C90.1434 65.3791 92.494 64.4912 94.7059 63.1892C97.6117 61.4792 98.5513 61.219 101.148 61.4069C102.907 61.5343 103.626 61.82 107.122 63.7815C110.195 65.5049 114.69 65.6277 117.646 64.0693C118.452 63.6447 119.937 62.859 120.946 62.3237C122.031 61.7483 123.245 61.3502 123.914 61.3502C126.114 61.3502 127.218 59.6987 125.689 58.6968C125.078 58.2964 124.611 58.2634 123.067 58.5123C121.069 58.8338 120.214 59.199 117.242 60.9978C115.479 62.0645 115.22 62.129 112.71 62.129C110.114 62.129 109.985 62.0932 107.569 60.6994C106.207 59.913 104.634 59.1136 104.076 58.9229C102.613 58.4238 99.7115 58.236 98.0606 58.5335ZM0.831601 75.508C0.241849 76.8018 0.77459 77.3096 3.18718 77.7551C4.64801 78.0246 6.00697 78.5707 7.65036 79.5487C10.3997 81.1849 12.4643 81.7295 15.243 81.551C17.2094 81.4248 18.312 80.9886 22.9662 78.4947C25.1108 77.3454 28.2284 77.4031 30.5136 78.6343C35.4048 81.2693 35.7276 81.3893 38.3274 81.5397L40.8516 81.6859L40.1039 80.3316C39.4157 79.0854 39.2153 78.949 37.6 78.6259C36.5734 78.4203 34.8238 77.6763 33.387 76.8339C32.0358 76.0416 30.1678 75.2301 29.2366 75.0304C26.6374 74.4727 23.6441 74.8409 21.5168 75.9796C17.0879 78.3502 16.3754 78.6081 14.2482 78.6109C12.6363 78.6128 11.8655 78.4396 10.6655 77.8062C5.5222 75.0917 5.26487 74.9883 3.25105 74.8266C1.27368 74.6677 1.20545 74.687 0.831601 75.508ZM96.9914 75.1615C96.306 75.3889 94.6237 76.2192 93.2529 77.0062C91.6026 77.9536 90.2237 78.5053 89.1717 78.6396C87.5513 78.8461 87.3884 79.0025 86.2889 81.4092C86.2185 81.5634 87.2728 81.6211 88.6804 81.5394C91.2836 81.3886 91.1898 81.4242 96.645 78.5439C97.8207 77.9234 98.6367 77.7364 100.228 77.7233C102.469 77.7047 103.635 78.0822 106.031 79.601C108.202 80.9774 110.227 81.6005 112.53 81.6005C115.059 81.6005 116.918 81.0269 119.557 79.4325C120.997 78.5623 122.356 78.024 123.773 77.7626C126.127 77.328 126.735 76.7498 126.162 75.4914C125.88 74.8724 125.594 74.7465 124.47 74.7465C122.534 74.7465 120.348 75.4824 118.032 76.914C114.277 79.235 110.852 79.2942 107.541 77.0956C106.655 76.5074 105.391 75.7943 104.732 75.5111C103.134 74.8238 98.6226 74.6201 96.9914 75.1615ZM1.42073 91.3954C0.664927 91.7708 0.397311 92.7129 0.848738 93.4092C1.00451 93.6501 1.92387 93.9545 2.89122 94.0856C3.85887 94.2168 5.16891 94.6012 5.8029 94.9399C10.4518 97.4222 11.221 97.7459 12.9223 97.9366C15.0258 98.1724 17.692 97.7332 19.2613 96.8923C24.8055 93.9211 24.5768 94.004 26.9078 94.1171C28.5783 94.1981 29.4712 94.4271 30.6463 95.0754C35.3936 97.6942 36.0884 97.9335 38.9433 97.9338C41.6404 97.9344 41.6544 97.9301 45.4858 95.9913C48.8495 94.2894 49.5414 94.0495 51.0702 94.0554C53.1934 94.0638 54.3654 94.4482 56.8063 95.9377C59.3865 97.512 60.7798 97.9257 63.5005 97.9257C66.2252 97.9257 67.6181 97.511 70.1986 95.9315C72.7555 94.3666 74.1123 93.971 76.4195 94.118C78.0467 94.2214 78.7829 94.4797 80.8282 95.6642C84.119 97.5696 85.326 97.935 88.2682 97.9157C91.0512 97.8977 92.0453 97.5659 95.425 95.5277C97.5279 94.2598 97.6824 94.218 100.269 94.218C102.877 94.218 102.999 94.252 105.418 95.652C108.728 97.5674 109.929 97.9332 112.892 97.9266C115.507 97.9207 116.377 97.6154 120.862 95.129C121.654 94.69 123.104 94.2221 124.085 94.089C125.934 93.8379 126.492 93.4111 126.356 92.3516C126.154 90.7758 122.334 90.8147 119.579 92.4204C115.657 94.7068 114.885 94.9969 112.718 94.9969C110.915 94.9969 110.317 94.8392 108.478 93.8797C107.301 93.2653 105.79 92.4805 105.121 92.136C102.507 90.7882 98.0301 90.8577 95.3203 92.288C94.5258 92.707 93.0348 93.4987 92.0067 94.0473C90.2951 94.9607 89.9402 95.0358 87.8009 94.9364C86.4899 94.8757 85.054 94.6137 84.5297 94.3395C84.0156 94.0707 82.6838 93.3454 81.57 92.7276C78.2595 90.891 73.8858 90.6387 71.0395 92.1204C70.4058 92.4503 68.9057 93.2457 67.7063 93.8878C65.6489 94.9891 65.3925 95.0492 63.1727 94.9483C61.0368 94.8511 60.5913 94.7087 58.3438 93.4071C55.147 91.5559 53.9647 91.1892 51.1945 91.1892C48.4242 91.1892 47.2419 91.5559 44.0452 93.4071C41.7924 94.7118 41.3572 94.8501 39.2163 94.943C37.0647 95.0361 36.7034 94.9595 34.9942 94.0473C33.9661 93.4987 32.4794 92.7092 31.6903 92.2927C28.9774 90.8605 24.4986 90.787 21.8879 92.1316C21.2143 92.4787 19.6999 93.2653 18.5229 93.8797C16.6842 94.8392 16.0863 94.9969 14.2831 94.9969C12.531 94.9969 11.8799 94.8358 10.3483 94.0233C9.33893 93.4881 7.86314 92.707 7.0687 92.288C5.31471 91.3624 2.41144 90.9035 1.42073 91.3954Z" fill="white"/>
</g>
<defs>
<filter id="filter0_d_26_2043" x="0.601807" y="0.963867" width="125.796" height="100.036" filterUnits="userSpaceOnUse" color-interpolation-filters="sRGB">
<feFlood flood-opacity="0" result="BackgroundImageFix"/>
<feColorMatrix in="SourceAlpha" type="matrix" values="0 0 0 0 0 0 0 0 0 0 0 0 0 0 0 0 0 0 127 0" result="hardAlpha"/>
<feOffset dy="3"/>
<feComposite in2="hardAlpha" operator="out"/>
<feColorMatrix type="matrix" values="0 0 0 0 0 0 0 0 0 0 0 0 0 0 0 0 0 0 0.25 0"/>
<feBlend mode="normal" in2="BackgroundImageFix" result="effect1_dropShadow_26_2043"/>
<feBlend mode="normal" in="SourceGraphic" in2="effect1_dropShadow_26_2043" result="shape"/>
</filter>
</defs>
</svg>
