<svg width="38" height="27" viewBox="0 0 38 27" fill="none" xmlns="http://www.w3.org/2000/svg">
<path fill-rule="evenodd" clip-rule="evenodd" d="M11.7343 4.56622C6.72709 7.07773 2.39411 9.33188 2.10567 9.57565C1.43443 10.1427 1.11861 10.7642 0.939025 11.8722C0.646346 13.6774 1.38195 16.0953 2.58152 17.2713C3.01532 17.6964 4.94495 18.794 8.63423 20.7139C14.0056 23.5091 14.0521 23.5377 14.2652 24.1797C14.5312 24.9804 15.4631 25.9401 16.2177 26.1901C16.5296 26.2933 17.1744 26.3455 17.6509 26.3058C19.0266 26.1912 20.2068 25.092 20.4323 23.7148C20.519 23.1852 20.644 23.0713 21.8563 22.418C22.5872 22.0241 25.1867 20.6136 27.6333 19.2835L32.0816 16.8654L32.6036 17.1849C33.6374 17.8178 35.6852 17.5002 36.4875 16.5824C37.6986 15.1973 37.5425 12.9071 36.1571 11.737C35.4613 11.149 34.2526 10.8873 33.349 11.1286C31.76 11.5532 30.8604 12.7831 30.953 14.4041L31.0072 15.3526L25.548 18.2957L20.0888 21.2387L19.5999 20.7712C18.1779 19.4113 16.1324 19.5163 14.8204 21.0166L14.2805 21.6337L12.5403 20.7249C5.94439 17.2802 4.22694 16.3381 3.81579 15.9391C2.93563 15.0849 2.43404 13.282 2.72688 12.025C2.90532 11.2592 3.59628 10.5756 4.04703 10.7193C4.21406 10.7726 6.24196 11.813 8.55324 13.0315C16.5516 17.2481 16.5423 17.2437 17.2161 17.0369C17.5412 16.9371 21.8773 14.731 26.8517 12.1346C35.5954 7.57067 35.8961 7.39807 35.8961 6.94619C35.8961 6.49595 35.7507 6.41006 31.985 4.63625C29.8339 3.62304 26.7852 2.16532 25.2102 1.39703C22.8771 0.258824 22.2067 0 21.5924 0C20.931 0 19.7184 0.561657 11.7343 4.56622ZM34.9256 13.4901C35.4144 13.9806 35.4315 14.3817 34.9879 14.9478C34.1428 16.0264 32.4957 14.966 33.1235 13.7473C33.5198 12.9778 34.3041 12.8659 34.9256 13.4901ZM17.9483 22.2623C19.0194 23.1081 17.9672 24.7646 16.7575 24.1367C15.9818 23.7341 15.8694 22.954 16.4963 22.3248C16.9849 21.8341 17.3845 21.8169 17.9483 22.2623Z" fill="white"/>
</svg>
