<svg width="34" height="33" viewBox="0 0 34 33" fill="none" xmlns="http://www.w3.org/2000/svg">
<path fill-rule="evenodd" clip-rule="evenodd" d="M15.7329 0.0605933C14.7282 0.127896 13.401 0.366104 12.3578 0.666316C6.45929 2.36412 1.87147 7.32227 0.652306 13.3168C-0.237148 17.6901 0.595272 22.1781 2.96721 25.7982C4.63545 28.3442 6.75643 30.2857 9.2979 31.5931C10.2222 32.0685 11.5274 32.599 11.9325 32.6637C12.3114 32.7244 12.6449 32.5418 12.8013 32.1882C12.9175 31.9254 12.923 31.7956 12.8809 30.3174L12.8356 28.7289L12.273 28.816C11.6411 28.9139 10.5963 28.8788 9.75005 28.7312C9.0646 28.6117 8.36777 28.2654 7.92896 27.8261C7.58185 27.4786 7.49231 27.3277 7.03761 26.3243C6.62686 25.4177 6.1581 24.816 5.52471 24.3822C5.08813 24.0832 4.7297 23.6918 4.75802 23.5448C4.7957 23.3491 5.07387 23.2622 5.55041 23.2973C6.47061 23.3649 7.43404 24.037 8.1204 25.09C8.59041 25.811 9.05401 26.2591 9.62114 26.5405C10.0293 26.7431 10.1414 26.7683 10.7293 26.7902C11.4051 26.8154 12.082 26.7134 12.6314 26.5036C12.9028 26.4 12.9116 26.387 13.0113 25.946C13.1379 25.3848 13.3772 24.8717 13.7062 24.4554L13.959 24.1357L13.4233 24.0603C11.6984 23.8177 10.4701 23.3967 9.32459 22.6557C7.82516 21.6856 6.93492 20.1755 6.50671 17.8756C6.37348 17.1598 6.35255 15.3309 6.46989 14.6579C6.66002 13.5679 7.10956 12.5683 7.7797 11.7456L8.07246 11.3863L7.94557 10.9786C7.60363 9.8799 7.66858 8.55138 8.12878 7.23077C8.24435 6.89909 8.2726 6.88569 8.79984 6.9129C9.57032 6.9526 11.2247 7.61673 12.35 8.33802L12.8186 8.63836L13.1801 8.56753C13.379 8.52861 13.7538 8.45091 14.0131 8.39492C15.7853 8.01197 18.2966 8.01197 20.0689 8.39492C20.3281 8.45091 20.7021 8.52757 20.8999 8.56524L21.2596 8.63372L21.881 8.25587C23.3617 7.35556 25.0493 6.75121 25.6408 6.90943C25.8089 6.95443 25.8561 7.02134 25.9853 7.39775C26.2667 8.21807 26.3455 8.7716 26.3125 9.69532C26.2903 10.3175 26.2449 10.6639 26.1457 10.9682L26.0095 11.3863L26.2956 11.7374C26.8769 12.4511 27.3118 13.3335 27.5521 14.2872C27.698 14.8665 27.7141 17.0134 27.5786 17.8429C27.3672 19.138 26.8304 20.4973 26.2056 21.3203C25.1251 22.7434 23.1679 23.7143 20.6908 24.0559L20.1219 24.1344L20.3752 24.4548C20.6869 24.8491 20.9307 25.3546 21.0717 25.8993C21.1608 26.2435 21.183 26.7959 21.2038 29.1908C21.2317 32.3931 21.2309 32.3877 21.6689 32.5955C21.9712 32.7389 22.2161 32.6949 23.1712 32.326C27.9947 30.463 31.8055 26.2277 33.1961 21.1845C34.1204 17.8326 33.9249 13.9405 32.6701 10.7128C31.5507 7.83315 29.5634 5.20417 27.1241 3.37575C24.4788 1.39304 21.4664 0.274274 18.1867 0.0564727C17.0411 -0.0195942 16.9276 -0.019398 15.7329 0.0605933Z" fill="white"/>
</svg>
