<svg width="52" height="52" viewBox="0 0 52 52" fill="none" xmlns="http://www.w3.org/2000/svg">
<path d="M26.078 51.0067C39.9335 51.0067 51.1656 39.7746 51.1656 25.9191C51.1656 12.0636 39.9335 0.831543 26.078 0.831543C12.2225 0.831543 0.990402 12.0636 0.990402 25.9191C0.990402 39.7746 12.2225 51.0067 26.078 51.0067Z" fill="url(#paint0_linear_224_1596)"/>
<path d="M34.333 15.8843H19.078C17.356 15.8843 16.043 17.1966 16.043 18.9189V34.1741C16.043 35.8964 17.356 37.2087 19.078 37.2087H34.333C36.056 37.2087 37.368 35.8964 37.368 34.1741V18.9189C37.368 17.1966 36.056 15.8843 34.333 15.8843ZM26.706 32.9438C30.232 32.9438 33.103 30.1553 33.103 26.7926C33.103 26.2184 33.021 25.5623 32.857 25.0702H34.661V33.764C34.661 34.1741 34.333 34.5842 33.841 34.5842H19.57C19.16 34.5842 18.75 34.2561 18.75 33.764V24.9882H20.636C20.472 25.5623 20.39 26.1364 20.39 26.7105C20.308 30.1553 23.179 32.9438 26.706 32.9438ZM26.706 30.4833C24.409 30.4833 22.605 28.6789 22.605 26.4645C22.605 24.25 24.409 22.4456 26.706 22.4456C29.002 22.4456 30.806 24.25 30.806 26.4645C30.806 28.761 29.002 30.4833 26.706 30.4833ZM34.579 21.7075C34.579 22.1996 34.169 22.6097 33.677 22.6097H31.381C30.888 22.6097 30.478 22.1996 30.478 21.7075V19.493C30.478 19.0009 30.888 18.5908 31.381 18.5908H33.677C34.169 18.5908 34.579 19.0009 34.579 19.493V21.7075Z" fill="white"/>
<defs>
<linearGradient id="paint0_linear_224_1596" x1="11.653" y1="45.362" x2="44.894" y2="10.8666" gradientUnits="userSpaceOnUse">
<stop stop-color="#EEA054"/>
<stop offset="0.502762" stop-color="#D64763"/>
<stop offset="1" stop-color="#B62A99"/>
</linearGradient>
</defs>
</svg>
