<svg width="43" height="41" viewBox="0 0 43 41" fill="none" xmlns="http://www.w3.org/2000/svg">
<g filter="url(#filter0_d_65_4680)">
<path d="M39.6814 3.48913C39.6664 3.42004 39.6311 3.35644 39.5795 3.3058C39.5279 3.25515 39.4622 3.21956 39.3902 3.2032C34.5856 2.08445 23.4843 6.07117 17.4698 11.7969C16.3971 12.8103 15.4191 13.9109 14.547 15.086C12.6923 14.9298 10.8376 15.0602 9.25683 15.7165C4.79679 17.586 3.49824 22.4641 3.13648 24.5626C3.11596 24.6774 3.1237 24.7953 3.15909 24.9068C3.19448 25.0183 3.25656 25.1205 3.34044 25.2053C3.42431 25.2901 3.52771 25.3552 3.64249 25.3955C3.75727 25.4358 3.8803 25.4502 4.00191 25.4376L11.1641 24.6852C11.1692 25.1995 11.2018 25.7132 11.2617 26.2243C11.2977 26.5792 11.4632 26.9109 11.7293 27.1618L14.5027 29.7969C14.7664 30.0501 15.1145 30.2076 15.4871 30.2423C16.0208 30.2991 16.5571 30.3301 17.0941 30.3352L16.3082 37.1477C16.2951 37.2635 16.3104 37.3806 16.3527 37.4898C16.3951 37.5991 16.4635 37.6975 16.5525 37.7773C16.6415 37.8572 16.7487 37.9163 16.8657 37.9501C16.9828 37.9838 17.1064 37.9913 17.227 37.972C19.4262 37.636 24.5573 36.3993 26.5088 32.1516C27.1979 30.6462 27.339 28.8884 27.1798 27.1305C28.4167 26.2999 29.5753 25.3683 30.6424 24.3462C36.6758 18.629 40.838 8.29226 39.6814 3.48913ZM24.6229 17.5259C24.072 17.0015 23.6967 16.3333 23.5446 15.6058C23.3925 14.8783 23.4703 14.1242 23.7682 13.4388C24.0662 12.7535 24.5708 12.1677 25.2184 11.7555C25.866 11.3433 26.6274 11.1233 27.4062 11.1233C28.1851 11.1233 28.9465 11.3433 29.5941 11.7555C30.2416 12.1677 30.7463 12.7535 31.0443 13.4388C31.3422 14.1242 31.42 14.8783 31.2679 15.6058C31.1158 16.3333 30.7405 17.0015 30.1896 17.5259C29.8242 17.8743 29.3904 18.1507 28.9128 18.3393C28.4352 18.5279 27.9233 18.625 27.4062 18.625C26.8892 18.625 26.3773 18.5279 25.8997 18.3393C25.4221 18.1507 24.9882 17.8743 24.6229 17.5259Z" fill="white"/>
</g>
<g filter="url(#filter1_d_65_4680)">
<path d="M14.3141 31.7055C13.8645 32.1344 13.1435 32.3016 12.2756 32.4445C10.3257 32.7609 8.60387 31.1562 8.95414 29.2789C9.08785 28.5672 9.48324 27.5695 9.72934 27.3352C9.78313 27.2849 9.81893 27.2198 9.83166 27.1491C9.84439 27.0784 9.8334 27.0056 9.80026 26.9412C9.76711 26.8768 9.71349 26.8239 9.64701 26.7902C9.58053 26.7564 9.50457 26.7434 9.42992 26.7531C8.33953 26.8802 7.32511 27.351 6.54816 28.0906C4.61961 29.9289 4.4375 36.75 4.4375 36.75C4.4375 36.75 11.6037 36.5766 13.5323 34.7383C14.3113 33.9989 14.8063 33.0313 14.9375 31.9914C14.9679 31.6648 14.5503 31.4703 14.3141 31.7055Z" fill="white"/>
</g>
<defs>
<filter id="filter0_d_65_4680" x="3.12527" y="3.01465" width="36.7495" height="36.9678" filterUnits="userSpaceOnUse" color-interpolation-filters="sRGB">
<feFlood flood-opacity="0" result="BackgroundImageFix"/>
<feColorMatrix in="SourceAlpha" type="matrix" values="0 0 0 0 0 0 0 0 0 0 0 0 0 0 0 0 0 0 127 0" result="hardAlpha"/>
<feOffset dy="2"/>
<feComposite in2="hardAlpha" operator="out"/>
<feColorMatrix type="matrix" values="0 0 0 0 0 0 0 0 0 0 0 0 0 0 0 0 0 0 0.22 0"/>
<feBlend mode="normal" in2="BackgroundImageFix" result="effect1_dropShadow_65_4680"/>
<feBlend mode="normal" in="SourceGraphic" in2="effect1_dropShadow_65_4680" result="shape"/>
</filter>
<filter id="filter1_d_65_4680" x="4.4375" y="26.75" width="10.5016" height="12" filterUnits="userSpaceOnUse" color-interpolation-filters="sRGB">
<feFlood flood-opacity="0" result="BackgroundImageFix"/>
<feColorMatrix in="SourceAlpha" type="matrix" values="0 0 0 0 0 0 0 0 0 0 0 0 0 0 0 0 0 0 127 0" result="hardAlpha"/>
<feOffset dy="2"/>
<feComposite in2="hardAlpha" operator="out"/>
<feColorMatrix type="matrix" values="0 0 0 0 0 0 0 0 0 0 0 0 0 0 0 0 0 0 0.22 0"/>
<feBlend mode="normal" in2="BackgroundImageFix" result="effect1_dropShadow_65_4680"/>
<feBlend mode="normal" in="SourceGraphic" in2="effect1_dropShadow_65_4680" result="shape"/>
</filter>
</defs>
</svg>
