<svg width="31" height="30" viewBox="0 0 31 30" fill="none" xmlns="http://www.w3.org/2000/svg">
<path fill-rule="evenodd" clip-rule="evenodd" d="M14.4395 0.0761288C8.59992 0.673 3.62629 4.65237 1.76868 10.2141C0.299237 14.6134 0.949969 19.41 3.53877 23.2624C5.38923 26.016 8.07461 28.0639 11.2066 29.11C15.606 30.5794 20.4025 29.9287 24.2549 27.3399C27.0085 25.4894 29.0564 22.804 30.1025 19.6721C31.5718 15.2733 30.9242 10.4954 28.3338 6.62144C25.2809 2.05609 19.8944 -0.481428 14.4395 0.0761288ZM16.9907 6.16678C17.2141 6.35887 17.2257 6.40599 17.2655 7.28331L17.307 8.19935L17.6704 8.46217C18.2799 8.90295 19.4158 10.0415 19.9477 10.7447C20.9763 12.1049 21.3068 13.3021 20.959 14.4079C20.7515 15.0676 20.1378 15.9758 19.3332 16.8139L18.6556 17.5197H17.9605H17.2655V18.3093V19.099H18.31C18.9119 19.099 19.4313 19.0598 19.5359 19.0065C19.6358 18.9558 19.9827 18.654 20.3069 18.3361L20.8962 17.758L23.1704 17.0986C24.4211 16.7359 25.5118 16.4392 25.594 16.4392C25.7244 16.4392 25.7435 16.5173 25.7435 17.0499V17.6607L25.3907 17.8188C25.1966 17.9057 24.8191 18.1225 24.5519 18.3005C24.1238 18.5856 23.9542 18.7938 23.1295 20.046C22.1717 21.5002 21.7138 22.0153 21.0764 22.3555L20.7149 22.5484L16.1933 22.5719C11.8907 22.5943 11.6395 22.5874 11.0088 22.4279C9.61213 22.0747 8.4311 21.1214 7.79708 19.8356C7.43801 19.1073 7.1825 18.1133 7.22481 17.6091L7.24975 17.3119L9.55436 17.2898L11.859 17.2677L11.8971 17.4561C11.918 17.5596 11.9545 17.7881 11.9781 17.9638C12.0317 18.3622 12.3461 18.7839 12.7227 18.9626C12.9497 19.0703 13.2738 19.099 14.265 19.099H15.52V18.3093V17.5197H14.3979C13.0921 17.5197 13.0976 17.5247 13.5959 16.7879C14.1048 16.0353 14.5902 15.1007 14.8142 14.442C15.3145 12.9713 14.9272 10.8301 13.6918 8.23676C13.4264 7.67978 13.2264 7.207 13.2474 7.18606C13.2683 7.1652 13.7601 7.27475 14.3403 7.42959C14.9206 7.58444 15.4234 7.71128 15.4577 7.71145C15.4919 7.71161 15.5213 7.45935 15.5229 7.15073C15.5246 6.84211 15.5754 6.50033 15.636 6.39103C15.8861 5.9397 16.5909 5.82309 16.9907 6.16678ZM12.9425 10.1836C13.4023 11.4474 13.5461 12.0983 13.5536 12.9482C13.5612 13.8017 13.4944 14.0183 12.8685 15.1731L12.5863 15.6939L10.4583 15.6718C8.56999 15.6521 8.33136 15.6346 8.33967 15.5169C8.34774 15.404 9.81627 13.0592 11.8465 9.91774C12.3812 9.0903 12.3816 9.08988 12.5296 9.27266C12.611 9.37315 12.7968 9.78317 12.9425 10.1836Z" fill="white"/>
</svg>
