<svg width="37" height="37" viewBox="0 0 37 37" fill="none" xmlns="http://www.w3.org/2000/svg">
<path opacity="0.5" fill-rule="evenodd" clip-rule="evenodd" d="M21.7231 18.8856C18.1967 17.9078 14.8751 17.928 11.4623 18.8766C9.74788 19.3523 8.59668 20.7991 8.59668 22.4763V23.4083C8.59668 23.8225 8.95428 24.1587 9.39668 24.1587H23.7967C24.2391 24.1587 24.5967 23.8225 24.5967 23.4083V22.4868C24.5967 20.8096 23.4423 19.3621 21.7231 18.8856Z" fill="white"/>
<path opacity="0.5" fill-rule="evenodd" clip-rule="evenodd" d="M17.0967 16.1587C19.6309 16.1587 21.5967 13.2641 21.5967 10.7741C21.5967 8.22869 19.5784 6.15869 17.0967 6.15869C14.6149 6.15869 12.5967 8.22869 12.5967 10.7741C12.5967 13.2641 14.5624 16.1587 17.0967 16.1587Z" fill="white"/>
<path fill-rule="evenodd" clip-rule="evenodd" d="M30.8102 28.1587C30.1378 28.9585 29.3966 29.6995 28.5967 30.3717L34.3832 36.1587L36.5967 33.9449L30.8102 28.1587Z" fill="white"/>
<path fill-rule="evenodd" clip-rule="evenodd" d="M17.0967 0.158691C26.1945 0.158691 33.5967 7.56012 33.5967 16.6587C33.5967 25.7573 26.1945 33.1587 17.0967 33.1587C7.99889 33.1587 0.59668 25.7573 0.59668 16.6587C0.59668 7.56012 7.99889 0.158691 17.0967 0.158691ZM2.16811 16.6587C2.16811 24.8906 8.86475 31.5873 17.0967 31.5873C25.3286 31.5873 32.0253 24.8906 32.0253 16.6587C32.0253 8.42676 25.3286 1.73012 17.0967 1.73012C8.86475 1.73012 2.16811 8.42676 2.16811 16.6587Z" fill="white"/>
</svg>
