<svg width="52" height="51" viewBox="0 0 52 51" fill="none" xmlns="http://www.w3.org/2000/svg">
<path d="M25.9216 50.3793C39.7771 50.3793 51.0092 39.1472 51.0092 25.2917C51.0092 11.4362 39.7771 0.204102 25.9216 0.204102C12.0661 0.204102 0.834 11.4362 0.834 25.2917C0.834 39.1472 12.0661 50.3793 25.9216 50.3793Z" fill="#2F89CE"/>
<path d="M12.5633 25.7611L18.3311 27.9118L20.5795 35.1459C20.6772 35.6347 21.2638 35.7324 21.6548 35.4392L24.8808 32.7997C25.1741 32.5064 25.6629 32.5064 26.054 32.7997L31.8217 37.0033C32.2127 37.2966 32.7993 37.1011 32.897 36.6123L37.1984 16.083C37.2962 15.5942 36.8074 15.1055 36.3186 15.301L12.5633 24.4903C11.9768 24.6858 11.9768 25.5656 12.5633 25.7611ZM20.2862 26.8364L31.6262 19.8956C31.8217 19.7979 32.0172 20.0911 31.8217 20.1889L22.5347 28.8894C22.2414 29.1826 21.9481 29.5737 21.9481 30.0625L21.6548 32.4087C21.6548 32.7019 21.166 32.7997 21.0683 32.4087L19.8952 28.1073C19.6019 27.6185 19.7974 27.032 20.2862 26.8364Z" fill="white"/>
</svg>
