<svg width="26" height="20" viewBox="0 0 26 20" fill="none" xmlns="http://www.w3.org/2000/svg">
<path d="M9.3771 18.853L1.14978 10.6615C1.10233 10.6143 1.06468 10.5582 1.03898 10.4963C1.01329 10.4345 1.00006 10.3682 1.00006 10.3012C1.00006 10.2342 1.01329 10.1679 1.03898 10.106C1.06468 10.0442 1.10233 9.98803 1.14978 9.9408L3.2268 7.85944C3.42527 7.66077 3.74606 7.66077 3.94453 7.85944L9.36094 13.2488C9.55941 13.4475 9.88251 13.4452 10.081 13.2465L22.0492 1.15102C22.2477 0.950046 22.5708 0.950046 22.7716 1.14871L24.8509 3.23008C25.0494 3.42874 25.0494 3.74984 24.8532 3.94851L11.8141 17.1182L11.8164 17.1205L10.0971 18.8507C9.89866 19.0494 9.57557 19.0494 9.3771 18.853Z" fill="#40C0E7" stroke="#40C0E7" stroke-miterlimit="10"/>
</svg>
