<svg width="95" height="98" viewBox="0 0 95 98" fill="none" xmlns="http://www.w3.org/2000/svg">
<path fill-rule="evenodd" clip-rule="evenodd" d="M80.9949 0.465733C76.9151 1.56458 73.8733 4.88574 73.1597 9.02018C72.8687 10.7046 73.1226 12.8434 73.824 14.6232L74.2646 15.7408L73.6417 16.4091C73.2991 16.7764 69.8321 20.4766 65.937 24.6316C62.0419 28.7865 58.6877 32.3652 58.4835 32.584C58.1235 32.9693 58.0823 32.9633 57.1723 32.3887C53.727 30.2139 49.1054 29.4092 44.935 30.2583C43.979 30.453 42.3315 31.0436 41.0623 31.6464L38.8532 32.6958L32.5791 26.2894L26.3048 19.8831L26.4781 18.9118C27.0128 15.9159 26.3404 13.3247 24.5328 11.4132C20.5677 7.22093 13.9069 8.27941 11.4638 13.4898C10.9678 14.5474 10.895 14.9798 10.895 16.8658C10.895 18.8755 10.9453 19.1311 11.6056 20.4721C13.148 23.6052 16.7415 25.3762 20.1389 24.6775L21.5528 24.3868L27.9415 30.7781L34.3302 37.1694L33.3782 39.0349C32.8547 40.061 32.2068 41.7886 31.9387 42.8741C31.5189 44.5725 31.4673 45.2138 31.5685 47.4743C31.6456 49.1963 31.8442 50.6493 32.145 51.6933C32.3974 52.5692 32.5716 53.318 32.5321 53.3577C32.3728 53.5168 18.0951 62.9434 18.013 62.9434C17.9647 62.9434 17.4601 62.6486 16.8922 62.2881C14.443 60.7343 10.7925 60.3201 8.11433 61.2923C4.33365 62.6646 2.02609 65.278 1.1569 69.172C-0.24564 75.4547 4.88686 81.7216 11.4346 81.7216C17.6513 81.7216 22.7551 75.9246 21.8209 69.9246C21.6951 69.1167 21.6623 68.3902 21.7475 68.3097C22.0879 67.9894 36.0637 58.8427 36.2087 58.8453C36.2944 58.8468 37.0334 59.3864 37.851 60.0447C39.5439 61.4071 41.5089 62.4561 43.7029 63.1681C44.9904 63.586 45.7064 63.6615 48.544 63.6799L51.8745 63.7015L54.1112 69.8517L56.3482 76.0018L54.9882 77.4048C52.0677 80.4175 50.9636 84.3629 51.9135 88.3927C52.805 92.1744 55.868 95.4263 59.7831 96.7475C61.4268 97.3019 65.0417 97.303 66.69 96.7492C71.3091 95.1971 74.4567 91.2176 74.8232 86.4667C74.9905 84.2964 74.6425 82.4974 73.655 80.4266C71.8912 76.7275 67.6225 73.9514 63.6987 73.9514C62.8759 73.9514 62.555 73.8575 62.4054 73.5736C62.2962 73.366 61.2101 70.437 59.9918 67.0649L57.7771 60.9337L58.4024 60.4992C59.6938 59.6018 61.8921 57.1695 62.7678 55.6696C63.2666 54.8148 63.7462 54.0715 63.8334 54.0177C63.9206 53.964 66.5981 54.5545 69.7831 55.3298C75.2572 56.6627 75.5864 56.7708 75.7966 57.3054C76.9417 60.2167 78.0917 61.6059 80.2231 62.6525C81.3327 63.1973 81.7085 63.2672 83.5257 63.2672C85.3724 63.2672 85.7156 63.2007 86.9792 62.5987C88.8034 61.7293 90.0942 60.4451 90.9364 58.6609C91.5315 57.4008 91.615 56.9974 91.615 55.389C91.615 53.7782 91.5317 53.378 90.9323 52.108C90.0942 50.3331 88.6541 48.8524 87.0215 48.0871C85.9444 47.5822 85.5244 47.511 83.6336 47.5129C81.7152 47.5149 81.3392 47.5816 80.2524 48.1134C79.5801 48.4426 78.6343 49.1076 78.1506 49.5913L77.2713 50.4706L72.1424 49.2498C69.3218 48.5785 66.6609 47.9362 66.2299 47.8224L65.4457 47.6157L65.2895 45.7398C65.084 43.2731 64.703 41.8508 63.6627 39.6658C63.1908 38.6751 62.8049 37.7724 62.8049 37.66C62.8049 37.5475 66.46 33.5691 70.9272 28.8189C77.0295 22.3303 79.1366 20.2183 79.399 20.327C80.7208 20.8748 82.2945 21.1071 84.1758 21.0326C85.9902 20.9605 86.4167 20.8617 87.8451 20.1824C90.9597 18.7011 92.8895 16.3363 93.7162 12.9884C94.1393 11.2742 94.1593 10.931 93.9297 9.33811C93.0266 3.07806 86.8997 -1.12459 80.9949 0.465733Z" fill="white"/>
</svg>
