<svg width="34" height="27" viewBox="0 0 34 27" fill="none" xmlns="http://www.w3.org/2000/svg">
<path d="M33.9971 3.19191C33.051 4.56595 31.8902 5.73726 30.5148 6.70583C30.5284 6.9656 30.5352 7.2592 30.5352 7.58663C30.5352 9.40594 30.2635 11.2275 29.7202 13.0512C29.1768 14.8749 28.3469 16.6205 27.2303 18.2881C26.1137 19.9556 24.7837 21.4329 23.2402 22.7199C21.6966 24.007 19.8413 25.0332 17.674 25.7986C15.5068 26.564 13.1841 26.9467 10.7059 26.9467C6.83831 26.9467 3.27665 25.9272 0.0209045 23.8884C0.598761 23.9512 1.15297 23.9826 1.68354 23.9826C4.9146 23.9826 7.80045 23.0109 10.3411 21.0676C8.83459 21.0406 7.48541 20.5878 6.29354 19.7092C5.10167 18.8306 4.28146 17.708 3.8329 16.3412C4.27627 16.4237 4.71387 16.4649 5.14568 16.4649C5.76726 16.4649 6.37888 16.3857 6.98054 16.2274C5.37283 15.9131 4.03909 15.1313 2.97933 13.882C1.91961 12.6328 1.38975 11.1909 1.38975 9.55646V9.47222C2.37657 10.0057 3.42917 10.2895 4.54755 10.3235C3.59515 9.70361 2.84005 8.89522 2.28223 7.89835C1.72437 6.90149 1.44544 5.82271 1.44544 4.66201C1.44544 3.43786 1.75962 2.29795 2.38799 1.24227C4.13635 3.33704 6.25486 5.01126 8.7435 6.2649C11.2322 7.51857 13.9021 8.21481 16.7532 8.35364C16.6316 7.85885 16.5706 7.34251 16.5704 6.80462C16.5704 4.92651 17.2512 3.32288 18.6126 1.99373C19.9741 0.664576 21.6166 0 23.5402 0C25.5542 0 27.2505 0.715981 28.6293 2.14794C30.2046 1.84328 31.6797 1.29223 33.0544 0.494794C32.5248 2.12219 31.5042 3.37762 29.9927 4.26107C31.3819 4.09989 32.7167 3.74351 33.997 3.19191H33.9971Z" fill="white"/>
</svg>
