<svg width="51" height="52" viewBox="0 0 51 52" fill="none" xmlns="http://www.w3.org/2000/svg">
<path d="M25.359 51.0067C39.2145 51.0067 50.4466 39.7746 50.4466 25.9191C50.4466 12.0636 39.2145 0.831543 25.359 0.831543C11.5035 0.831543 0.271393 12.0636 0.271393 25.9191C0.271393 39.7746 11.5035 51.0067 25.359 51.0067Z" fill="#7294C7"/>
<path d="M37.66 32.3355C37.66 32.2314 37.556 32.2314 37.556 32.1272C37.139 31.2941 36.202 30.2527 34.952 29.1071C34.328 28.5864 34.015 28.1698 33.807 27.9615C33.494 27.545 33.494 27.2325 33.599 26.816C33.703 26.5035 34.119 25.9828 34.848 25.0455C35.265 24.5248 35.473 24.2124 35.786 23.9C37.348 21.8171 38.077 20.4633 37.868 19.8384L37.764 19.7343C37.66 19.6302 37.556 19.526 37.348 19.526C37.139 19.4219 36.827 19.4219 36.515 19.526H32.557C32.453 19.526 32.453 19.526 32.245 19.526C32.141 19.526 32.036 19.526 32.036 19.526H31.932H31.828L31.724 19.6301C31.62 19.7343 31.62 19.7343 31.62 19.8384C31.203 20.984 30.683 21.9213 30.162 22.9627C29.849 23.4834 29.537 24.0041 29.225 24.4207C28.912 24.8373 28.704 25.1497 28.496 25.358C28.287 25.5663 28.079 25.6704 27.975 25.8787C27.871 25.9828 27.662 26.087 27.662 25.9828C27.558 25.9828 27.454 25.9828 27.454 25.8787C27.35 25.7745 27.246 25.6704 27.142 25.5662C27.038 25.4621 27.038 25.2538 26.933 25.0455C26.933 24.8373 26.933 24.629 26.933 24.5248C26.933 24.4207 26.933 24.1083 26.933 23.9C26.933 23.5876 26.933 23.3793 26.933 23.2751C26.933 22.9627 26.933 22.5461 26.933 22.1296C26.933 21.713 26.933 21.4006 26.933 21.1923C26.933 20.984 26.933 20.6716 26.933 20.4633C26.933 20.1509 26.933 19.9426 26.933 19.8384C26.933 19.7343 26.829 19.526 26.829 19.4219C26.725 19.3177 26.621 19.2136 26.517 19.1094C26.413 19.0053 26.204 19.0053 26.1 18.9012C25.58 18.797 24.955 18.6929 24.226 18.6929C22.56 18.6929 21.414 18.797 20.997 19.0053C20.789 19.1094 20.581 19.2136 20.477 19.4219C20.268 19.6301 20.268 19.7343 20.373 19.7343C20.893 19.8384 21.31 20.0467 21.518 20.3591L21.622 20.5674C21.726 20.6716 21.726 20.8799 21.831 21.1923C21.935 21.5047 21.935 21.8171 21.935 22.2337C21.935 22.8586 21.935 23.4834 21.935 23.9C21.935 24.4207 21.831 24.7331 21.831 25.0455C21.831 25.358 21.726 25.5663 21.622 25.6704C21.518 25.8787 21.518 25.9828 21.414 25.9828C21.414 25.9828 21.414 26.087 21.31 26.087C21.206 26.087 21.102 26.1911 20.893 26.1911C20.789 26.1911 20.581 26.087 20.477 25.9828C20.268 25.8787 20.06 25.6704 19.956 25.4621C19.748 25.2538 19.539 24.9414 19.331 24.5248C19.123 24.1083 18.81 23.6917 18.602 23.0668L18.394 22.6503C18.29 22.442 18.081 22.0254 17.873 21.5047C17.665 20.984 17.457 20.5674 17.248 20.0467C17.144 19.8384 17.04 19.7343 16.936 19.6301H16.832C16.832 19.6301 16.728 19.526 16.623 19.526C16.519 19.526 16.415 19.4219 16.311 19.4219H12.562C12.145 19.4219 11.937 19.526 11.833 19.6301L11.729 19.7343C11.729 19.7343 11.729 19.8384 11.729 19.9426C11.729 20.0467 11.729 20.1509 11.833 20.3591C12.354 21.6088 12.978 22.8586 13.603 24.1083C14.228 25.2538 14.853 26.2953 15.27 27.0242C15.79 27.7532 16.207 28.4822 16.728 29.1071C17.248 29.7319 17.561 30.1485 17.665 30.3568C17.873 30.5651 17.977 30.6692 18.081 30.7734L18.394 31.0858C18.602 31.2941 18.915 31.6065 19.331 31.9189C19.748 32.2314 20.268 32.5438 20.789 32.8562C21.31 33.1686 21.935 33.3769 22.56 33.5852C23.289 33.7935 23.913 33.8976 24.538 33.7935H26.1C26.413 33.7935 26.621 33.6893 26.829 33.4811L26.933 33.3769C26.933 33.2728 27.038 33.2728 27.038 33.1686C27.038 33.0645 27.038 32.9604 27.038 32.7521C27.038 32.3355 27.038 32.0231 27.142 31.7106C27.246 31.3982 27.246 31.1899 27.35 30.9817C27.454 30.7734 27.558 30.6692 27.662 30.5651C27.767 30.4609 27.871 30.3568 27.871 30.3568H27.975C28.183 30.2527 28.496 30.3568 28.704 30.5651C29.016 30.7734 29.329 31.0858 29.537 31.3982C29.745 31.7106 30.058 32.0231 30.474 32.4396C30.891 32.8562 31.203 33.1686 31.412 33.2728L31.724 33.4811C31.932 33.5852 32.141 33.6894 32.453 33.7935C32.765 33.8976 32.974 33.8976 33.182 33.8976L36.723 33.7935C37.035 33.7935 37.348 33.6894 37.556 33.5852C37.764 33.4811 37.868 33.3769 37.868 33.1686C37.868 33.0645 37.868 32.8562 37.868 32.7521C37.66 32.5438 37.66 32.4396 37.66 32.3355Z" fill="white"/>
</svg>
