<svg width="22" height="23" viewBox="0 0 22 23" fill="none" xmlns="http://www.w3.org/2000/svg">
<path d="M19.5556 9.66656H18.9445V5.99989C18.9445 5.83781 18.8801 5.68238 18.7655 5.56777C18.6509 5.45317 18.4954 5.38878 18.3334 5.38878H3.66669C3.52199 5.39114 3.38114 5.34207 3.26923 5.2503C3.15732 5.15854 3.08161 5.03003 3.05558 4.88767V4.66767C3.08161 4.52531 3.15732 4.3968 3.26923 4.30504C3.38114 4.21327 3.52199 4.1642 3.66669 4.16656H18.0767C18.2388 4.16656 18.3942 4.10217 18.5088 3.98757C18.6234 3.87296 18.6878 3.71752 18.6878 3.55545C18.6878 3.39337 18.6234 3.23793 18.5088 3.12333C18.3942 3.00872 18.2388 2.94434 18.0767 2.94434H3.66669C3.18046 2.94434 2.71414 3.13749 2.37033 3.48131C2.02651 3.82512 1.83336 4.29144 1.83336 4.77767C1.82907 4.85094 1.82907 4.9244 1.83336 4.99767V17.5682C1.83575 17.8973 1.90294 18.2226 2.03108 18.5257C2.15922 18.8287 2.34579 19.1036 2.58016 19.3346C2.81453 19.5655 3.09209 19.7481 3.397 19.8718C3.70192 19.9954 4.02821 20.0579 4.35725 20.0554H18.3334C18.4954 20.0554 18.6509 19.9911 18.7655 19.8765C18.8801 19.7619 18.9445 19.6064 18.9445 19.4443V15.7777H19.5556C19.7177 15.7777 19.8731 15.7133 19.9877 15.5987C20.1023 15.4841 20.1667 15.3286 20.1667 15.1666V10.2777C20.1667 10.1156 20.1023 9.96015 19.9877 9.84555C19.8731 9.73094 19.7177 9.66656 19.5556 9.66656ZM17.7222 18.8332H4.35725C4.01735 18.8365 3.6899 18.7054 3.44613 18.4685C3.20237 18.2316 3.06201 17.9081 3.05558 17.5682V6.53767C3.25394 6.59515 3.46035 6.61992 3.66669 6.611H17.7222V9.66656H13.4445C12.6341 9.66656 11.8569 9.98848 11.2839 10.5615C10.7108 11.1345 10.3889 11.9117 10.3889 12.7221C10.3889 13.5325 10.7108 14.3097 11.2839 14.8827C11.8569 15.4557 12.6341 15.7777 13.4445 15.7777H17.7222V18.8332ZM18.9445 14.5554H13.4445C12.9582 14.5554 12.4919 14.3623 12.1481 14.0185C11.8043 13.6747 11.6111 13.2083 11.6111 12.7221C11.6111 12.2359 11.8043 11.7696 12.1481 11.4257C12.4919 11.0819 12.9582 10.8888 13.4445 10.8888H18.9445V14.5554Z" fill="white"/>
<path d="M14.0617 13.639C14.5679 13.639 14.9784 13.2286 14.9784 12.7223C14.9784 12.2161 14.5679 11.8057 14.0617 11.8057C13.5554 11.8057 13.145 12.2161 13.145 12.7223C13.145 13.2286 13.5554 13.639 14.0617 13.639Z" fill="white"/>
</svg>
