<svg width="380" height="60" viewBox="0 0 380 60" fill="none" xmlns="http://www.w3.org/2000/svg">
<path d="M0.941315 0.583008V44.1723H45.8473V59.1523H162.651C164.177 59.1565 165.688 58.8519 167.096 58.2562C168.504 57.6606 169.781 56.786 170.852 55.6836L182.229 44.1723H379.68C379.68 32.6117 375.153 21.5246 367.095 13.35C359.037 5.17545 348.107 0.583008 336.711 0.583008H0.941315Z" fill="url(#paint0_linear_1_1173)"/>
<path d="M0.941315 0.583008V44.1723H45.8473V59.1523H162.651C164.177 59.1565 165.688 58.8519 167.096 58.2562C168.504 57.6606 169.781 56.786 170.852 55.6836L182.229 44.1723H379.68C379.68 32.6117 375.153 21.5246 367.095 13.35C359.037 5.17545 348.107 0.583008 336.711 0.583008H0.941315Z" fill="url(#paint1_linear_1_1173)"/>
<defs>
<linearGradient id="paint0_linear_1_1173" x1="-77305.9" y1="5208.57" x2="-149753" y2="5208.57" gradientUnits="userSpaceOnUse">
<stop offset="0.01" stop-color="#0189B8"/>
<stop offset="0.99" stop-color="#00CBD2"/>
</linearGradient>
<linearGradient id="paint1_linear_1_1173" x1="379.68" y1="29.8588" x2="0.941345" y2="29.8588" gradientUnits="userSpaceOnUse">
<stop offset="0.01" stop-color="#0190DF"/>
<stop offset="0.99" stop-color="#DB4D91"/>
</linearGradient>
</defs>
</svg>
