<svg width="1305" height="2198" viewBox="0 0 1305 2198" fill="none" xmlns="http://www.w3.org/2000/svg">
<path d="M1287.52 419.283C1284.36 413.505 1280 408.805 1274.87 405.644C1269.74 402.483 1264.01 400.969 1258.25 401.249C1252.48 401.529 1246.87 403.594 1241.97 407.242C1237.08 410.89 1233.05 415.996 1230.29 422.062C1226.46 380.789 1210.07 342.645 1184.25 314.898C1158.42 287.151 1124.97 271.738 1090.26 271.597H820.237C768.365 271.415 718.672 246.614 682.068 202.637C645.465 158.661 624.941 99.1028 625.004 37.0385V0.791504H682.228V37.0385C682.183 80.8589 696.666 122.912 722.5 153.973C748.335 185.034 783.411 202.568 820.035 202.727H1090.13C1139.67 202.911 1187.36 225.215 1223.87 265.272C1260.38 305.329 1283.08 360.252 1287.52 419.283Z" fill="url(#paint0_linear_240_1594)"/>
<path d="M1287.52 440.505C1287.54 447.772 1287.26 455.035 1286.67 462.268C1282.25 521.345 1259.57 576.313 1223.09 616.404C1186.61 656.495 1138.95 678.82 1089.45 679.004H217.462C182.765 679.127 149.32 694.546 123.503 722.322C97.6863 750.097 81.3036 788.286 77.4788 829.607C74.7367 823.528 70.7252 818.406 65.8363 814.741C60.9475 811.076 55.3486 808.993 49.5869 808.697C43.8253 808.4 38.0981 809.9 32.965 813.05C27.8319 816.199 23.4687 820.891 20.3017 826.665C24.8112 767.67 47.5108 712.808 83.9677 672.791C120.425 632.773 168.021 610.476 217.462 610.251H1089.45C1124.13 610.109 1157.56 594.681 1183.36 566.907C1209.17 539.133 1225.54 500.955 1229.36 459.648C1230.57 447.076 1230.57 434.378 1229.36 421.806C1232.12 415.736 1236.14 410.626 1241.03 406.976C1245.93 403.326 1251.53 401.259 1257.29 400.979C1263.05 400.699 1268.78 402.214 1273.9 405.377C1279.03 408.54 1283.38 413.243 1286.54 419.025C1287.16 426.161 1287.49 433.33 1287.52 440.505V440.505Z" fill="url(#paint1_linear_240_1594)"/>
<path d="M1287.52 1238.21C1284.77 1232 1280.7 1226.78 1275.73 1223.06C1270.76 1219.34 1265.06 1217.26 1259.21 1217.02C1253.35 1216.79 1247.55 1218.41 1242.38 1221.73C1237.22 1225.04 1232.87 1229.93 1229.79 1235.91C1225.59 1194.95 1209.08 1157.23 1183.36 1129.84C1157.64 1102.45 1124.47 1087.26 1090.08 1087.12H218.375C168.899 1086.94 121.263 1064.6 84.7852 1024.48C48.3075 984.367 25.6131 929.36 21.1423 870.224C20.5707 863 20.3017 855.737 20.3017 848.352C20.3017 840.967 20.5707 833.704 21.1423 826.521C24.3082 820.738 28.6701 816.041 33.8015 812.887C38.933 809.733 44.6584 808.231 50.4182 808.528C56.178 808.825 61.7751 810.91 66.6624 814.58C71.5497 818.25 75.56 823.38 78.3013 829.466C77.1357 842.031 77.1357 854.713 78.3013 867.278C82.1171 908.661 98.4913 946.91 124.301 974.73C150.11 1002.55 183.549 1018 218.24 1018.12H1090.08C1140.01 1018.32 1188.05 1041.07 1224.64 1081.85C1261.22 1122.64 1283.67 1178.46 1287.52 1238.21V1238.21Z" fill="url(#paint2_linear_240_1594)"/>
<path d="M1291.2 1263.35C1291.2 1269.72 1291 1276.08 1290.59 1282.32C1286.68 1341.87 1264.19 1397.48 1227.61 1438.09C1191.03 1478.71 1143.03 1501.37 1093.13 1501.57H221.172C186.444 1501.69 152.97 1517.12 127.143 1544.92C101.316 1572.71 84.9452 1610.92 81.1584 1652.25C78.4269 1646.16 74.4182 1641.03 69.5267 1637.35C64.6351 1633.68 59.0292 1631.59 53.2603 1631.3C47.4914 1631.01 41.7583 1632.52 36.6249 1635.68C31.4914 1638.85 27.1345 1643.56 23.9827 1649.35C28.4074 1590.3 51.0877 1535.35 87.581 1495.27C124.074 1455.19 171.751 1432.87 221.272 1432.68H1093.13C1127.5 1432.54 1160.65 1417.41 1186.36 1390.12C1212.08 1362.83 1228.61 1325.25 1232.85 1284.41C1233.59 1277.43 1233.96 1270.4 1233.96 1263.35C1233.95 1256.37 1233.59 1249.39 1232.88 1242.46C1235.97 1236.5 1240.31 1231.62 1245.48 1228.31C1250.65 1225 1256.45 1223.38 1262.31 1223.61C1268.16 1223.84 1273.86 1225.92 1278.84 1229.63C1283.81 1233.34 1287.87 1238.56 1290.63 1244.75C1291 1250.91 1291.2 1257.11 1291.2 1263.35Z" fill="url(#paint3_linear_240_1594)"/>
<path d="M682.815 2068.46V2197.95H625.658V2068.46C625.703 2024.58 611.209 1982.48 585.361 1951.4C559.513 1920.32 524.426 1902.81 487.81 1902.71H218.366C168.907 1902.54 121.282 1880.26 84.8061 1840.23C48.3307 1800.2 25.6292 1745.31 21.1422 1686.28C20.5707 1679.07 20.3017 1671.78 20.3017 1664.33C20.3017 1656.87 20.5707 1649.82 21.1422 1642.73C24.293 1636.94 28.6485 1632.23 33.7802 1629.06C38.9119 1625.89 44.6432 1624.38 50.4101 1624.67C56.1771 1624.97 61.7812 1627.05 66.6711 1630.73C71.561 1634.4 75.5683 1639.54 78.2989 1645.63C77.748 1651.84 77.4675 1658.08 77.4584 1664.33C77.459 1670.68 77.7508 1677.03 78.3325 1683.34C82.1789 1724.63 98.5658 1762.78 124.371 1790.52C150.177 1818.26 183.597 1833.66 218.265 1833.78H487.877C539.683 1833.98 589.305 1858.81 625.853 1902.81C662.4 1946.8 682.886 2006.38 682.815 2068.46V2068.46Z" fill="url(#paint4_linear_240_1594)"/>
<g style="mix-blend-mode:multiply" opacity="0.66">
<path style="mix-blend-mode:multiply" opacity="0.66" d="M1241.07 383.76C1231.05 345.08 1210.95 311.26 1183.72 287.252C1156.49 263.245 1123.55 250.31 1089.74 250.342H820.213C773.087 250.129 727.957 227.529 694.726 187.503C661.495 147.476 642.877 93.2927 642.957 36.8415V22.0576H664.816V36.9221C664.762 86.3856 681.096 133.853 710.23 168.905C739.365 203.956 778.921 223.727 820.213 223.876H1089.85C1170.55 223.876 1240.7 289.779 1262.9 380.013C1261.62 380.013 1260.37 380.013 1259.1 380.013C1252.95 379.946 1246.84 381.215 1241.07 383.76V383.76Z" fill="url(#paint5_linear_240_1594)"/>
<g style="mix-blend-mode:multiply" opacity="0.66">
<path d="M66.6987 791.546C60.9339 788.899 54.8142 787.534 48.6402 787.518C47.396 787.518 46.1517 787.518 44.9075 787.518C67.1022 697.284 137.419 631.381 217.993 631.381H1089.84C1128.91 631.347 1166.59 614.035 1195.66 582.767C1224.73 551.5 1243.14 508.476 1247.36 461.95C1248 454.886 1248.33 447.786 1248.33 440.681C1248.33 436.37 1248.33 431.98 1247.96 427.589C1250.83 424.087 1254.74 422.078 1258.83 421.995C1262.93 421.912 1266.89 423.762 1269.86 427.146C1270.09 431.536 1270.19 436.008 1270.19 440.681C1270.19 447.529 1269.96 454.135 1269.45 460.379C1261.11 571.198 1182.22 657.766 1089.84 657.766H217.993C184.154 657.786 151.209 670.784 123.983 694.858C96.7581 718.932 76.6831 752.815 66.6987 791.546V791.546Z" fill="url(#paint6_linear_240_1594)" style="mix-blend-mode:multiply"/>
<path d="M66.6987 791.546C60.9339 788.899 54.8142 787.534 48.6402 787.518C47.396 787.518 46.1517 787.518 44.9075 787.518C67.1022 697.284 137.419 631.381 217.993 631.381H1089.84C1128.91 631.347 1166.59 614.035 1195.66 582.767C1224.73 551.5 1243.14 508.476 1247.36 461.95C1248 454.886 1248.33 447.786 1248.33 440.681C1248.33 436.37 1248.33 431.98 1247.96 427.589C1250.83 424.087 1254.74 422.078 1258.83 421.995C1262.93 421.912 1266.89 423.762 1269.86 427.146C1270.09 431.536 1270.19 436.008 1270.19 440.681C1270.19 447.529 1269.96 454.135 1269.45 460.379C1261.11 571.198 1182.22 657.766 1089.84 657.766H217.993C184.154 657.786 151.209 670.784 123.983 694.858C96.7581 718.932 76.6831 752.815 66.6987 791.546V791.546Z" fill="url(#paint7_linear_240_1594)"/>
</g>
<g style="mix-blend-mode:multiply" opacity="0.66">
<path d="M1240.97 1198.97C1230.81 1160.47 1210.7 1126.84 1183.53 1102.94C1156.36 1079.04 1123.55 1066.12 1089.84 1066.04H217.994C125.65 1066.04 46.7578 979.386 38.3507 868.648C37.8463 862.122 37.5773 855.636 37.5773 848.708C37.5773 844.035 37.5773 839.483 37.9472 835.092C40.8327 831.813 44.6636 829.995 48.641 830.016C50.7246 830.011 52.7882 830.503 54.711 831.465C56.6338 832.426 58.3772 833.837 59.8393 835.616C59.5703 840.047 59.4357 844.397 59.4357 848.708C59.4797 899.132 76.1797 947.487 105.888 983.211C135.597 1018.93 175.9 1039.12 217.994 1039.37H1089.84C1128.92 1039.65 1166.87 1055.02 1198.07 1083.2C1229.27 1111.38 1252.05 1150.86 1263.03 1195.79C1261.32 1195.79 1259.67 1195.47 1257.88 1195.47C1252.12 1195.49 1246.4 1196.67 1240.97 1198.97V1198.97Z" fill="url(#paint8_linear_240_1594)" style="mix-blend-mode:multiply"/>
<path d="M1240.97 1198.97C1230.81 1160.47 1210.7 1126.84 1183.53 1102.94C1156.36 1079.04 1123.55 1066.12 1089.84 1066.04H217.994C125.65 1066.04 46.7578 979.386 38.3507 868.648C37.8463 862.122 37.5773 855.636 37.5773 848.708C37.5773 844.035 37.5773 839.483 37.9472 835.092C40.8327 831.813 44.6636 829.995 48.641 830.016C50.7246 830.011 52.7882 830.503 54.711 831.465C56.6338 832.426 58.3772 833.837 59.8393 835.616C59.5703 840.047 59.4357 844.397 59.4357 848.708C59.4797 899.132 76.1797 947.487 105.888 983.211C135.597 1018.93 175.9 1039.12 217.994 1039.37H1089.84C1128.92 1039.65 1166.87 1055.02 1198.07 1083.2C1229.27 1111.38 1252.05 1150.86 1263.03 1195.79C1261.32 1195.79 1259.67 1195.47 1257.88 1195.47C1252.12 1195.49 1246.4 1196.67 1240.97 1198.97V1198.97Z" fill="url(#paint9_linear_240_1594)"/>
</g>
<path style="mix-blend-mode:multiply" opacity="0.66" d="M66.6716 1607.16C60.9141 1604.53 54.8083 1603.16 48.6468 1603.13C47.4025 1603.13 46.1246 1603.13 44.8804 1603.13C67.0079 1512.77 137.359 1446.79 217.999 1446.79H1089.85C1128.52 1446.66 1165.83 1429.65 1194.77 1398.93C1223.72 1368.22 1242.32 1325.91 1247.1 1279.94C1247.93 1272.07 1248.35 1264.14 1248.34 1256.21C1248.34 1251.42 1248.34 1246.66 1247.9 1241.95C1250.74 1239.14 1254.31 1237.6 1257.99 1237.6C1260.29 1237.6 1262.57 1238.21 1264.65 1239.39C1266.73 1240.56 1268.57 1242.28 1270.03 1244.41C1270.23 1248.44 1270.3 1252.47 1270.3 1256.21C1270.3 1261.81 1270.1 1267.65 1269.73 1273.57C1266.01 1327.75 1245.5 1378.3 1212.23 1415.27C1178.95 1452.23 1135.33 1472.94 1089.95 1473.3H217.999C184.147 1473.32 151.191 1486.33 123.959 1510.42C96.7267 1534.51 76.6505 1568.41 66.6716 1607.16Z" fill="url(#paint10_linear_240_1594)"/>
<path style="mix-blend-mode:multiply" opacity="0.66" d="M642.956 2176.72V2068.28C643.001 2018.82 626.663 1971.36 597.529 1936.32C568.395 1901.28 528.845 1881.51 487.559 1881.36H217.994C125.684 1881.36 46.7915 1794.8 38.3507 1684.26C37.8463 1677.85 37.5773 1671.17 37.5773 1664.12C37.5773 1659.53 37.5773 1654.97 37.9472 1650.58C40.9341 1647.24 44.894 1645.44 48.9792 1645.55C53.0645 1645.66 56.9505 1647.68 59.8056 1651.19C59.5703 1655.62 59.4357 1659.93 59.4357 1664.12C59.4532 1714.55 76.1458 1762.92 105.861 1798.64C135.576 1834.37 175.895 1854.54 217.994 1854.74H487.559C534.687 1854.94 579.822 1877.54 613.055 1917.57C646.288 1957.59 664.904 2011.78 664.814 2068.24V2176.68L642.956 2176.72Z" fill="url(#paint11_linear_240_1594)"/>
</g>
<path d="M1302.69 433.536C1302.74 443.198 1298.97 452.552 1292.08 459.884C1285.18 467.216 1275.63 472.034 1265.16 473.456C1254.69 474.879 1244.01 472.809 1235.08 467.627C1226.14 462.444 1219.56 454.497 1216.52 445.241C1213.49 435.985 1214.21 426.041 1218.56 417.231C1222.9 408.422 1230.58 401.337 1240.18 397.276C1249.79 393.215 1260.67 392.45 1270.85 395.12C1281.02 397.791 1289.79 403.718 1295.57 411.816C1300.21 418.267 1302.69 425.817 1302.69 433.536Z" fill="#F7F7F7"/>
<path d="M1258.81 461.392C1275.64 461.392 1289.28 448.939 1289.28 433.576C1289.28 418.214 1275.64 405.761 1258.81 405.761C1241.98 405.761 1228.34 418.214 1228.34 433.576C1228.34 448.939 1241.98 461.392 1258.81 461.392Z" fill="url(#paint12_linear_240_1594)"/>
<path d="M1258.81 461.392C1275.64 461.392 1289.28 448.939 1289.28 433.576C1289.28 418.214 1275.64 405.761 1258.81 405.761C1241.98 405.761 1228.34 418.214 1228.34 433.576C1228.34 448.939 1241.98 461.392 1258.81 461.392Z" fill="url(#paint13_linear_240_1594)"/>
<path d="M92.3627 844.507C92.3678 852.956 89.3823 861.18 83.8511 867.955C78.32 874.729 70.5392 879.691 61.6679 882.101C52.7966 884.512 43.3097 884.241 34.6204 881.33C25.9312 878.419 18.5048 873.024 13.4476 865.948C8.86752 859.586 6.42706 852.139 6.42706 844.527C6.42706 836.914 8.86752 829.468 13.4476 823.106C18.5028 816.033 25.9253 810.638 34.6103 807.727C43.2952 804.815 52.778 804.541 61.6471 806.947C70.5162 809.352 78.2971 814.307 83.8317 821.075C89.3663 827.843 92.3584 836.061 92.3627 844.507Z" fill="#F7F7F7"/>
<path d="M49.4164 871.761C65.9068 871.761 79.275 859.558 79.275 844.505C79.275 829.453 65.9068 817.25 49.4164 817.25C32.9259 817.25 19.5577 829.453 19.5577 844.505C19.5577 859.558 32.9259 871.761 49.4164 871.761Z" fill="url(#paint14_linear_240_1594)"/>
<path d="M49.4164 871.761C65.9068 871.761 79.275 859.558 79.275 844.505C79.275 829.453 65.9068 817.25 49.4164 817.25C32.9259 817.25 19.5577 829.453 19.5577 844.505C19.5577 859.558 32.9259 871.761 49.4164 871.761Z" fill="url(#paint15_linear_240_1594)"/>
<path d="M1304.04 1256.81C1304.05 1265.91 1300.81 1274.78 1294.8 1282.04C1288.79 1289.31 1280.34 1294.58 1270.74 1297.06C1261.14 1299.54 1250.92 1299.09 1241.63 1295.78C1232.33 1292.46 1224.48 1286.47 1219.27 1278.71C1214.76 1272.11 1212.36 1264.5 1212.36 1256.72C1212.36 1248.95 1214.76 1241.33 1219.27 1234.74C1224.52 1227.02 1232.39 1221.07 1241.68 1217.79C1250.97 1214.51 1261.18 1214.09 1270.76 1216.59C1280.33 1219.08 1288.76 1224.36 1294.76 1231.61C1300.75 1238.87 1304 1247.72 1303.99 1256.81H1304.04Z" fill="#F7F7F7"/>
<path d="M1290.08 1256.81C1290.08 1262.56 1288.2 1268.17 1284.69 1272.95C1281.19 1277.72 1276.21 1281.44 1270.39 1283.64C1264.57 1285.83 1258.17 1286.4 1252 1285.27C1245.82 1284.15 1240.15 1281.38 1235.7 1277.31C1231.25 1273.24 1228.23 1268.06 1227 1262.42C1225.78 1256.79 1226.41 1250.94 1228.82 1245.63C1231.23 1240.32 1235.31 1235.79 1240.55 1232.59C1245.79 1229.4 1251.94 1227.7 1258.24 1227.7C1262.42 1227.7 1266.57 1228.45 1270.44 1229.91C1274.3 1231.38 1277.82 1233.52 1280.77 1236.23C1283.73 1238.93 1286.08 1242.14 1287.67 1245.67C1289.27 1249.2 1290.09 1252.99 1290.08 1256.81Z" fill="#DB4E92"/>
<path d="M100.079 1662.43C100.063 1672.23 96.5801 1681.77 90.1477 1689.62C83.7152 1697.48 74.6773 1703.23 64.3783 1706.01C54.0793 1708.8 43.0695 1708.48 32.9868 1705.1C22.904 1701.71 14.287 1695.45 8.41769 1687.24C3.10039 1679.86 0.266602 1671.23 0.266602 1662.4C0.266602 1653.58 3.10039 1644.94 8.41769 1637.57C13.1348 1630.96 19.6555 1625.59 27.3383 1621.97C35.0212 1618.36 43.6016 1616.64 52.2355 1616.97C60.8694 1617.31 69.2594 1619.69 76.5802 1623.88C83.901 1628.07 89.9005 1633.93 93.9885 1640.88C97.9762 1647.48 100.071 1654.89 100.079 1662.43Z" fill="#F7F7F7"/>
<path d="M84.8802 1662.43C84.8802 1668.69 82.8461 1674.81 79.0353 1680.02C75.2245 1685.22 69.808 1689.28 63.4708 1691.68C57.1336 1694.07 50.1603 1694.7 43.4328 1693.48C36.7053 1692.26 30.5257 1689.24 25.6754 1684.81C20.8251 1680.39 17.5221 1674.75 16.1839 1668.6C14.8457 1662.46 15.5325 1656.1 18.1574 1650.31C20.7824 1644.53 25.2276 1639.58 30.9309 1636.11C36.6342 1632.63 43.3395 1630.77 50.1988 1630.77C54.7532 1630.77 59.2631 1631.59 63.4708 1633.18C67.6785 1634.77 71.5018 1637.1 74.7222 1640.04C77.9427 1642.98 80.4973 1646.47 82.2402 1650.31C83.9831 1654.15 84.8802 1658.27 84.8802 1662.43Z" fill="url(#paint16_linear_240_1594)"/>
<defs>
<linearGradient id="paint0_linear_240_1594" x1="625.105" y1="211.507" x2="1287.52" y2="211.507" gradientUnits="userSpaceOnUse">
<stop offset="0.01" stop-color="#0189B8"/>
<stop offset="0.99" stop-color="#00EDF5"/>
</linearGradient>
<linearGradient id="paint1_linear_240_1594" x1="20.1672" y1="615.087" x2="1287.52" y2="615.087" gradientUnits="userSpaceOnUse">
<stop offset="0.01" stop-color="#008FDF"/>
<stop offset="0.99" stop-color="#00CFD9"/>
</linearGradient>
<linearGradient id="paint2_linear_240_1594" x1="20.3017" y1="1023.29" x2="1287.52" y2="1023.29" gradientUnits="userSpaceOnUse">
<stop offset="0.01" stop-color="#0190DF"/>
<stop offset="0.99" stop-color="#DB4D91"/>
</linearGradient>
<linearGradient id="paint3_linear_240_1594" x1="23.8818" y1="1437.91" x2="1291.2" y2="1437.91" gradientUnits="userSpaceOnUse">
<stop offset="0.01" stop-color="#E82382"/>
<stop offset="0.99" stop-color="#614DDB"/>
</linearGradient>
<linearGradient id="paint4_linear_240_1594" x1="20.3017" y1="1911.34" x2="682.815" y2="1911.34" gradientUnits="userSpaceOnUse">
<stop offset="0.01" stop-color="#DF00E3"/>
<stop offset="0.99" stop-color="#C901A3"/>
</linearGradient>
<linearGradient id="paint5_linear_240_1594" x1="117136" y1="19116.3" x2="231422" y2="19116.3" gradientUnits="userSpaceOnUse">
<stop offset="0.01" stop-color="#0189B8"/>
<stop offset="0.99" stop-color="#00CBD2"/>
</linearGradient>
<linearGradient id="paint6_linear_240_1594" x1="12383.5" y1="56993.3" x2="458828" y2="56993.3" gradientUnits="userSpaceOnUse">
<stop offset="0.01" stop-color="#00DFAB"/>
<stop offset="0.99" stop-color="#00CFD9"/>
</linearGradient>
<linearGradient id="paint7_linear_240_1594" x1="44.7774" y1="606.606" x2="1270.19" y2="606.606" gradientUnits="userSpaceOnUse">
<stop offset="0.01" stop-color="#008FDF"/>
<stop offset="0.99" stop-color="#00CFD9"/>
</linearGradient>
<linearGradient id="paint8_linear_240_1594" x1="9706.4" y1="94640.2" x2="456274" y2="94640.2" gradientUnits="userSpaceOnUse">
<stop offset="0.01" stop-color="#00DFAB"/>
<stop offset="0.99" stop-color="#DBB64D"/>
</linearGradient>
<linearGradient id="paint9_linear_240_1594" x1="37.5773" y1="1014.44" x2="1263.03" y2="1014.44" gradientUnits="userSpaceOnUse">
<stop offset="0.01" stop-color="#0190DF"/>
<stop offset="0.99" stop-color="#DB4D91"/>
</linearGradient>
<linearGradient id="paint10_linear_240_1594" x1="12372.6" y1="132637" x2="458879" y2="132637" gradientUnits="userSpaceOnUse">
<stop offset="0.01" stop-color="#E823CF"/>
<stop offset="0.99" stop-color="#DBB64D"/>
</linearGradient>
<linearGradient id="paint11_linear_240_1594" x1="4986.48" y1="254943" x2="121979" y2="254943" gradientUnits="userSpaceOnUse">
<stop offset="0.01" stop-color="#DF00E3"/>
<stop offset="0.99" stop-color="#C901A3"/>
</linearGradient>
<linearGradient id="paint12_linear_240_1594" x1="23427.1" y1="6630.35" x2="24266.9" y2="6630.35" gradientUnits="userSpaceOnUse">
<stop offset="0.01" stop-color="#0189B8"/>
<stop offset="0.99" stop-color="#00CBD2"/>
</linearGradient>
<linearGradient id="paint13_linear_240_1594" x1="1228.35" y1="433.587" x2="1289.28" y2="433.587" gradientUnits="userSpaceOnUse">
<stop offset="0.01" stop-color="#0189B8"/>
<stop offset="0.99" stop-color="#00EDF5"/>
</linearGradient>
<linearGradient id="paint14_linear_240_1594" x1="275.745" y1="12434" x2="1098.65" y2="12434" gradientUnits="userSpaceOnUse">
<stop offset="0.01" stop-color="#01C9AC"/>
<stop offset="0.99" stop-color="#00E390"/>
</linearGradient>
<linearGradient id="paint15_linear_240_1594" x1="19.5577" y1="844.497" x2="79.275" y2="844.497" gradientUnits="userSpaceOnUse">
<stop offset="0.01" stop-color="#0190DF"/>
<stop offset="0.99" stop-color="#DB4D91"/>
</linearGradient>
<linearGradient id="paint16_linear_240_1594" x1="313.083" y1="27944.9" x2="1268.9" y2="27944.9" gradientUnits="userSpaceOnUse">
<stop offset="0.01" stop-color="#C901A3"/>
<stop offset="0.99" stop-color="#DF00E3"/>
</linearGradient>
</defs>
</svg>
