<svg width="365" height="59" viewBox="0 0 365 59" fill="none" xmlns="http://www.w3.org/2000/svg">
<path d="M0.462097 0.381348V43.9703H43.624V58.9501H155.891C157.358 58.9543 158.81 58.6497 160.164 58.0541C161.517 57.4585 162.744 56.5839 163.773 55.4815L174.709 43.9703H364.492C364.492 32.4098 360.14 21.3228 352.395 13.1483C344.65 4.97375 334.145 0.381348 323.191 0.381348H0.462097Z" fill="url(#paint0_linear_1_1161)"/>
<path d="M0.462097 0.381348V43.9703H43.624V58.9501H155.891C157.358 58.9543 158.81 58.6497 160.164 58.0541C161.517 57.4585 162.744 56.5839 163.773 55.4815L174.709 43.9703H364.492C364.492 32.4098 360.14 21.3228 352.395 13.1483C344.65 4.97375 334.145 0.381348 323.191 0.381348H0.462097Z" fill="url(#paint1_linear_1_1161)"/>
<defs>
<linearGradient id="paint0_linear_1_1161" x1="-74303.9" y1="5208.32" x2="-143937" y2="5208.32" gradientUnits="userSpaceOnUse">
<stop offset="0.01" stop-color="#0189B8"/>
<stop offset="0.99" stop-color="#00CBD2"/>
</linearGradient>
<linearGradient id="paint1_linear_1_1161" x1="364.492" y1="29.6569" x2="0.462097" y2="29.6569" gradientUnits="userSpaceOnUse">
<stop offset="0.01" stop-color="#0190DF"/>
<stop offset="0.99" stop-color="#DB4D91"/>
</linearGradient>
</defs>
</svg>
